<svg width="221" height="259" viewBox="0 0 221 259" fill="none" xmlns="http://www.w3.org/2000/svg">
<path d="M137.958 114.592L154.268 113.903C157.875 113.779 161.476 113.498 165.04 113.73C166.744 113.699 168.389 114.339 169.617 115.511C170.846 116.683 171.559 118.291 171.6 119.986C171.747 120.795 171.728 121.625 171.546 122.428C171.363 123.23 171.019 123.988 170.536 124.656C170.053 125.324 169.44 125.889 168.733 126.317C168.026 126.745 167.241 127.027 166.423 127.146C163.543 127.78 160.62 128.204 157.679 128.415C145.964 129.282 134.199 129.94 122.498 130.867C112.478 131.681 108.215 127.4 110.449 117.536C113.23 105.153 116.643 92.9054 119.942 80.7154C120.949 76.9256 123.249 73.9324 127.636 74.9766C132.023 76.0208 133.042 79.1459 132.373 83.2965C131.705 87.4471 131.163 91.5994 130.453 97.4577C132.501 96.0749 134.459 94.5645 136.314 92.9356C144.893 83.97 153.391 74.9291 161.926 65.9109C163.379 64.153 165.017 62.5556 166.813 61.1461C170.017 59.0409 173.681 58.0854 176.585 61.4278C179.489 64.7702 178.077 67.7749 175.217 70.8055C164.135 82.8435 153.174 94.8533 142.224 107.049C140.486 108.935 138.88 110.979 137.255 112.808L137.958 114.592Z" fill="#E51B20"/>
<path d="M46.2348 61.0237C48.2168 58.1128 50.1616 55.1784 52.2181 52.3143C54.2746 49.4502 56.6933 45.6966 59.2612 42.7123C59.7594 42.0287 60.3908 41.456 61.1168 41.0294C61.8428 40.6027 62.6481 40.3312 63.4834 40.2312C64.3186 40.1313 65.1663 40.2051 65.9745 40.4482C66.7826 40.6912 67.5343 41.0985 68.1833 41.6448C69.6002 42.5664 70.6102 44.0079 70.9995 45.664C71.3887 47.3201 71.1266 49.0606 70.2685 50.5168C69.4531 52.3637 68.5034 54.1462 67.4274 55.8497C60.1941 67.7484 52.8863 79.6004 45.6973 91.553C39.9448 101.109 33.353 101.693 27.9159 92.0646C21.8757 81.3552 16.8925 70.0114 11.7273 58.839C10.1226 55.3876 9.8199 51.5338 13.9477 49.2446C17.4267 47.3008 20.1712 48.7148 23.356 53.7573C24.8288 56.2423 26.2414 58.7414 28.7286 63.1114C29.4347 60.4824 29.9726 57.8091 30.339 55.1081C30.8531 43.7912 31.1883 32.3877 31.6194 21.1225C31.5837 17.8375 31.8103 14.5565 32.2971 11.3115C32.431 9.61282 33.2152 8.03816 34.4827 6.92298C35.7502 5.80779 37.4008 5.24028 39.0828 5.34124C43.602 5.66249 45.082 8.85356 45.021 13.0503C44.8707 25.3755 44.7005 37.7054 44.5102 50.04C44.4562 53.5916 44.4094 57.1738 44.3855 60.7183L46.2348 61.0237Z" fill="#E51B20"/>
<path d="M164.599 223.614C168.592 229.747 171.685 234.356 174.61 239.067C176.081 241.222 177.327 243.52 178.328 245.927C179.363 248.841 179.116 252.403 175.743 253.385C173.009 253.891 170.188 253.526 167.684 252.344C166.122 251.669 165.204 249.391 164.124 247.782C158.69 239.588 153.256 231.394 147.912 223.179C142.569 214.964 144.207 207.413 152.859 203.517C163.029 198.885 173.68 195.214 184.149 191.175C185.584 190.341 187.237 189.952 188.894 190.059C191.454 190.91 194.68 192.014 195.925 194.058C196.337 194.784 196.578 195.594 196.63 196.427C196.683 197.26 196.545 198.095 196.228 198.87C195.911 199.645 195.422 200.34 194.798 200.904C194.174 201.467 193.431 201.885 192.623 202.126C187.824 204.233 182.714 205.56 176.121 207.773C177.969 208.795 179.901 209.661 181.897 210.362C190.234 212.317 198.711 214.05 206.964 216.056C209.242 216.379 211.396 217.275 213.221 218.658C213.98 219.414 214.568 220.322 214.946 221.322C215.323 222.321 215.483 223.39 215.413 224.457C215.036 225.462 214.428 226.368 213.637 227.102C212.846 227.836 211.895 228.378 210.857 228.685C207.936 228.944 204.994 228.718 202.152 228.015C192.192 226.347 182.015 224.572 171.948 222.992C169.487 223.01 167.03 223.218 164.599 223.614Z" fill="#E51B20"/>
</svg>
