<svg width="216" height="27" viewBox="0 0 216 27" fill="none" xmlns="http://www.w3.org/2000/svg">
<path fill-rule="evenodd" clip-rule="evenodd" d="M77.8221 5.59175C76.7717 5.55869 75.7259 5.7453 74.7522 6.13965C73.7785 6.53421 72.8985 7.12752 72.1687 7.8817C70.7171 9.40135 69.9073 11.4195 69.9073 13.5183C69.9073 15.617 70.7171 17.6352 72.1687 19.1551C72.8882 19.9063 73.7569 20.4998 74.7194 20.8977C75.6818 21.2956 76.7169 21.4892 77.7586 21.4661C78.7896 21.4919 79.8146 21.3021 80.7677 20.9088C81.7206 20.5157 82.5804 19.9279 83.2917 19.1833C84.7184 17.6507 85.511 15.6373 85.511 13.5465C85.511 11.4557 84.7184 9.44215 83.2917 7.90973C82.5818 7.16287 81.7225 6.57291 80.7693 6.17836C79.816 5.78401 78.7902 5.59363 77.7586 5.61999L77.8221 5.59175ZM68.8615 4.61937C70.9224 2.5585 73.6366 1.2742 76.541 0.98508C79.4457 0.69596 82.3608 1.42022 84.7896 3.03423C87.2185 4.64845 89.011 7.05241 89.8611 9.83649C90.7112 12.6206 90.5668 15.6126 89.4522 18.3023C88.3376 20.9921 86.3218 23.2132 83.7486 24.587C81.1754 25.9609 78.204 26.4025 75.3407 25.8366C72.4775 25.2705 69.8997 23.732 68.0468 21.4833C66.194 19.2344 65.1807 16.4145 65.1797 13.5043C65.1535 11.8511 65.4666 10.2103 66.0998 8.68252C66.7328 7.1545 67.6728 5.77187 68.8615 4.61937ZM29.6762 11.3838H44.4104C43.9836 9.74047 43.034 8.2794 41.704 7.21978C40.4054 6.15347 38.7715 5.57711 37.0894 5.59217C35.3632 5.54887 33.6778 6.11811 32.3335 7.19865C31.0164 8.26977 30.0839 9.73859 29.6762 11.3838ZM28.1993 22.4318C27.0215 21.2791 26.0912 19.8996 25.4656 18.3768C24.8398 16.8542 24.5317 15.2204 24.5599 13.5752C24.5329 11.9271 24.8363 10.2901 25.4528 8.76057C26.0694 7.23129 26.9864 5.84008 28.1499 4.66917C29.2774 3.47231 30.6444 2.52461 32.1623 1.88759C33.6803 1.25035 35.3154 0.937805 36.9621 0.970023C40.178 0.933203 43.286 2.12566 45.6472 4.30264C46.8726 5.41393 47.8515 6.76831 48.5208 8.27897C49.1902 9.78984 49.5353 11.4233 49.5338 13.0748C49.5379 13.8053 49.4908 14.5352 49.3925 15.2591H29.6762C29.7496 16.117 29.992 16.9519 30.3898 17.716C30.7876 18.4802 31.3328 19.1586 31.9942 19.7122C33.3733 20.8758 35.135 21.4906 36.9409 21.4383C38.0343 21.4777 39.1233 21.2808 40.1333 20.8611C41.1433 20.4415 42.0502 19.8093 42.7922 19.0076L48.5022 19.0567C47.4405 21.1507 45.8192 22.9113 43.817 24.144C41.8039 25.4168 39.4659 26.0845 37.0824 26.0674C35.431 26.0992 33.7907 25.7931 32.2628 25.1676C30.735 24.5423 29.352 23.6111 28.1993 22.4318ZM10.709 25.687L0.900391 1.35741H5.92488L13.1046 19.5077L20.3268 1.35741H25.3513L15.4933 25.687H10.709ZM52.7773 13.0038V25.6866H57.5829V13.0038C57.5781 8.26911 59.3989 5.90176 63.0455 5.90176H63.5331V1.2725H63.0455C61.667 1.21413 60.2918 1.44614 59.0097 1.95367C57.7275 2.4612 56.5669 3.23274 55.6041 4.21767C53.7195 6.18126 52.7773 9.1099 52.7773 13.0038ZM109.665 25.687H115.127L106.103 13.0396L114.449 1.35741H109.029L103.319 9.14314L97.708 1.35741H92.2878L100.634 13.0396L91.5598 25.687H97.0719L103.368 16.9782L109.665 25.687ZM120.675 25.609V17.471H116.301V14.6528H120.675V13.7861L120.774 10.8198C121.038 7.86522 121.966 5.54473 123.558 3.85854C125.243 2.13429 127.509 1.09475 129.918 0.941403V3.91481C128.322 4.15937 126.854 4.93092 125.749 6.10602C124.6 7.41919 123.936 9.08529 123.869 10.8269L123.77 13.7932V14.6597H131.467V17.4781H123.798V25.6162L120.675 25.609ZM136.421 1.36411H139.544V25.6935H136.421V1.36411ZM164.085 6.73317C163.222 5.83087 162.178 5.11811 161.022 4.64029C159.866 4.16226 158.624 3.92963 157.372 3.95703C156.115 3.93444 154.867 4.16916 153.705 4.64656C152.543 5.12418 151.493 5.83422 150.617 6.73317C148.842 8.55429 147.851 10.9934 147.851 13.5323C147.851 16.0714 148.842 18.5105 150.617 20.3316C151.485 21.2377 152.531 21.9555 153.689 22.4404C154.848 22.9253 156.095 23.1668 157.351 23.15C158.598 23.1737 159.836 22.94 160.989 22.4634C162.141 21.9868 163.181 21.2779 164.044 20.381C165.789 18.5392 166.761 16.1015 166.761 13.5676C166.761 11.0338 165.789 8.59591 164.044 6.75429L164.085 6.73317ZM148.42 4.61937C150.479 2.5585 153.194 1.2742 156.099 0.98508C159.003 0.69596 161.918 1.42022 164.347 3.03423C166.775 4.64845 168.569 7.05241 169.418 9.83649C170.269 12.6206 170.125 15.6126 169.01 18.3023C167.896 20.9921 165.879 23.2132 163.306 24.587C160.734 25.9609 157.761 26.4025 154.898 25.8366C152.035 25.2705 149.458 23.732 147.604 21.4833C145.752 19.2344 144.739 16.4145 144.736 13.5043C144.712 11.8511 145.025 10.2103 145.657 8.68252C146.29 7.1545 147.231 5.77187 148.42 4.61937ZM191.317 4.64029C192.472 5.11811 193.517 5.83087 194.382 6.73317L194.333 6.75429C196.079 8.59529 197.052 11.0334 197.052 13.5676C197.052 16.1019 196.079 18.54 194.333 20.381C193.469 21.2783 192.431 21.9877 191.28 22.4643C190.13 22.941 188.892 23.1745 187.646 23.15C186.39 23.1676 185.143 22.9266 183.984 22.4414C182.826 21.9565 181.78 21.2383 180.912 20.3316C179.137 18.5105 178.146 16.0714 178.146 13.5323C178.146 10.9934 179.137 8.55429 180.912 6.73317C181.788 5.83422 182.838 5.12418 184 4.64656C185.164 4.16916 186.41 3.93444 187.667 3.95703C188.919 3.92963 190.161 4.16226 191.317 4.64029ZM186.4 0.98508C183.495 1.2742 180.783 2.5585 178.721 4.61937C177.532 5.77166 176.593 7.15429 175.958 8.68232C175.326 10.2101 175.013 11.8511 175.04 13.5043C175.04 16.4145 176.053 19.2344 177.907 21.4833C179.759 23.732 182.338 25.2705 185.201 25.8366C188.064 26.4025 191.035 25.9609 193.607 24.587C196.182 23.2132 198.197 20.9921 199.311 18.3023C200.426 15.6126 200.57 12.6206 199.721 9.83649C198.87 7.05241 197.078 4.64845 194.65 3.03423C192.221 1.42022 189.304 0.69596 186.4 0.98508ZM203.901 25.6866V13.0743C203.901 9.15215 204.803 6.19987 206.607 4.21767C207.534 3.2252 208.665 2.44571 209.926 1.93358C211.184 1.42124 212.542 1.18839 213.899 1.25137C214.136 1.24781 214.373 1.26182 214.606 1.29362V4.26703C214.373 4.22875 214.136 4.21223 213.899 4.21767C212.946 4.17855 211.996 4.36034 211.123 4.74904C210.251 5.13795 209.483 5.72289 208.875 6.45824C207.641 7.94735 207.024 10.1528 207.024 13.0743V25.6866H203.901ZM212.466 22.9807H211.934V22.1773H212.429C212.577 22.17 212.725 22.1842 212.867 22.2196C212.942 22.2485 213.006 22.2972 213.051 22.3606C213.094 22.4231 213.117 22.4968 213.115 22.5719C213.119 22.6284 213.109 22.6849 213.084 22.7363C213.061 22.7878 213.026 22.833 212.981 22.8679C212.826 22.9598 212.645 22.9993 212.466 22.9807ZM211.498 21.811V24.4955H211.934V23.3541H212.21C212.334 23.3436 212.456 23.3761 212.556 23.4457C212.748 23.6238 212.905 23.8365 213.016 24.0727L213.257 24.4955H213.786L213.455 23.9671C213.341 23.7775 213.209 23.6005 213.059 23.4386C212.991 23.3744 212.913 23.3242 212.826 23.2907C213.036 23.284 213.238 23.1987 213.391 23.0512C213.459 22.9842 213.514 22.9041 213.549 22.8156C213.586 22.7271 213.605 22.6323 213.603 22.5367C213.601 22.3955 213.558 22.2581 213.475 22.1422C213.393 22.0223 213.273 21.9313 213.137 21.8815C212.907 21.8219 212.668 21.7982 212.429 21.811H211.498ZM211.574 21.3037C211.887 21.1269 212.239 21.0324 212.6 21.029H212.641C212.987 21.0395 213.325 21.1338 213.623 21.3037C213.953 21.4798 214.225 21.7462 214.408 22.0717C214.59 22.3897 214.684 22.7491 214.684 23.1146C214.682 23.4767 214.59 23.8326 214.414 24.1503C214.235 24.4752 213.965 24.7418 213.638 24.9183C213.323 25.1028 212.964 25.2001 212.6 25.2001C212.233 25.2001 211.875 25.1028 211.559 24.9183C211.232 24.7418 210.962 24.4752 210.783 24.1503C210.604 23.8344 210.509 23.4775 210.507 23.1146C210.507 22.748 210.606 22.3882 210.791 22.0717C210.97 21.7447 211.244 21.4777 211.574 21.3037ZM213.829 20.9374C213.453 20.7309 213.03 20.6219 212.6 20.6202H212.641C212.204 20.616 211.774 20.7227 211.391 20.9303C210.997 21.143 210.67 21.4631 210.451 21.8533C210.231 22.2326 210.115 22.6627 210.115 23.1003C210.115 23.5382 210.231 23.9683 210.451 24.3476C210.659 24.7382 210.972 25.0629 211.356 25.2846C211.735 25.497 212.163 25.6085 212.6 25.6085C213.034 25.6085 213.463 25.497 213.844 25.2846C214.235 25.0708 214.557 24.7476 214.769 24.3545C214.987 23.9777 215.102 23.5499 215.1 23.1146C215.098 22.6752 214.983 22.2439 214.769 21.8604C214.55 21.47 214.223 21.1499 213.829 20.9374Z" fill="#485B60"/>
</svg>
