<svg width="206" height="35" viewBox="0 0 206 35" fill="none" xmlns="http://www.w3.org/2000/svg">
<path fill-rule="evenodd" clip-rule="evenodd" d="M0.370552 17.3586L42.1097 0.75752H42.1167C42.1939 0.726497 42.2786 0.71937 42.3601 0.736978C42.4413 0.754795 42.5155 0.79651 42.5728 0.857089C42.632 0.915571 42.6715 0.991033 42.686 1.0732C42.7032 1.15348 42.6961 1.23712 42.6654 1.31321L31.2163 28.8938C31.1719 28.994 31.0926 29.0745 30.9932 29.1202C30.8922 29.1612 30.7788 29.1612 30.6778 29.1202L23.0221 26.3453C22.9373 26.3178 22.8461 26.3178 22.7613 26.3453C22.6766 26.3692 22.6012 26.4182 22.5454 26.4859L16.5394 33.8879C16.4854 33.9572 16.4111 34.0078 16.3266 34.0323C16.2422 34.057 16.1523 34.0545 16.0696 34.025C15.9868 33.9939 15.9152 33.939 15.8638 33.8673C15.8123 33.7967 15.7858 33.7109 15.7884 33.6237V23.9854C15.7858 23.9219 15.7976 23.8586 15.8226 23.8003C15.8493 23.7425 15.8877 23.6911 15.9358 23.6494L36.7453 5.54933C36.7501 5.53717 36.7501 5.52355 36.7453 5.5116C36.7476 5.50615 36.7487 5.50028 36.7487 5.49441C36.7487 5.48854 36.7476 5.48267 36.7453 5.47722C36.7361 5.46716 36.7241 5.46003 36.7111 5.45668C36.705 5.45416 36.6987 5.45269 36.6922 5.45269C36.6857 5.45269 36.6792 5.45416 36.6733 5.45668L13.1644 22.586C13.1073 22.6269 13.0416 22.6539 12.9723 22.6648C12.9017 22.6757 12.8295 22.6676 12.7631 22.6409L0.370552 18.1715C0.289276 18.1413 0.219762 18.086 0.171668 18.0139C0.123995 17.943 0.0987897 17.8592 0.0996297 17.7737C0.0992097 17.6884 0.124205 17.6047 0.171668 17.5337C0.216822 17.4551 0.286756 17.3934 0.370552 17.3586ZM51.5285 4.10254H55.3014L55.3562 27.0835H51.5833L51.5285 4.10254ZM67.1791 10.5479C65.2722 10.5479 63.5264 11.2337 62.4322 12.6059V10.8908H58.8754L58.9163 27.0805H62.4733L62.4458 16.3616C62.7777 15.5881 63.3323 14.9309 64.039 14.474C64.7459 14.017 65.5727 13.781 66.4143 13.7961C68.678 13.7961 69.9746 15.4047 69.9814 17.9635L70.002 27.0805H73.559L73.5348 17.3975C73.5348 13.2129 71.0585 10.5615 67.1791 10.5718V10.5479ZM83.3276 22.1684L88.2529 10.8222L92.2215 10.8117L84.9258 27.0219H81.7876L74.4404 10.8494H78.3849L83.3276 22.1684ZM101.05 10.4688C98.9772 10.5032 96.9911 11.3065 95.4774 12.7231C93.9636 14.1394 93.0303 16.0677 92.8585 18.1336C92.6865 20.1996 93.2886 22.2557 94.5474 23.9029C95.8064 25.5498 97.6323 26.6702 99.6709 27.0467C101.71 27.423 103.815 27.0283 105.579 25.9393C107.343 24.8503 108.64 23.1447 109.217 21.1536C109.794 19.1622 109.611 17.0277 108.702 15.1642C107.794 13.3008 106.225 11.8412 104.302 11.0692C103.269 10.6533 102.163 10.4491 101.05 10.4688ZM101.081 24.0037C98.2067 24.0037 96.1933 21.7809 96.1897 18.8998C96.1864 16.0186 98.1723 13.7789 101.057 13.7548C103.942 13.7309 105.914 15.9809 105.921 18.8621C105.927 21.7432 103.928 23.9796 101.091 23.9865L101.081 24.0037ZM112.07 10.7431H115.627L115.669 26.9328H112.115L112.07 10.7431ZM115.627 4.50098H112.07V7.7869H115.627V4.50098ZM129.605 14.4682C128.818 13.9647 127.902 13.7002 126.967 13.7067L126.984 13.6828C124.107 13.7067 122.072 15.9465 122.079 18.8276C122.086 21.709 124.13 23.9315 127.005 23.9315C127.94 23.9347 128.856 23.6657 129.641 23.1581C130.424 22.6502 131.046 21.9251 131.426 21.0709L134.534 22.7585C133.818 24.13 132.737 25.276 131.407 26.0688C130.08 26.8615 128.557 27.2699 127.012 27.2483C122.158 27.2552 118.436 23.6469 118.436 18.8484C118.436 14.0496 122.106 10.4036 126.942 10.3969C128.49 10.3703 130.015 10.7729 131.346 11.56C132.678 12.3471 133.766 13.4879 134.488 14.8558L131.401 16.5434C131.017 15.6924 130.391 14.9715 129.605 14.4682ZM144.812 10.3556C139.898 10.3556 136.368 14.0394 136.395 18.8004C136.395 23.7085 139.942 27.2106 144.848 27.2003C148.225 27.2003 150.764 25.7254 152.207 23.4274L149.504 21.4929C148.668 22.9164 147.141 23.959 144.888 23.9659C142.206 23.9659 140.066 22.227 139.898 19.572L152.589 19.5411C152.619 19.0268 152.619 18.7316 152.619 18.3751C152.619 13.1682 149.042 10.3592 144.81 10.3659L144.812 10.3556ZM140.045 16.9755C140.526 14.5745 142.618 13.3707 144.693 13.3707C146.768 13.3707 148.637 14.6225 149.032 16.9516L140.045 16.9755ZM197.367 10.2288H197.493L197.497 10.2424C198.601 10.2338 199.698 10.4451 200.718 10.8637C201.741 11.2826 202.669 11.9003 203.451 12.6811C204.234 13.4607 204.854 14.388 205.274 15.409C205.694 16.4301 205.908 17.5247 205.899 18.6287V18.6837C205.908 19.7906 205.694 20.8878 205.271 21.9113C204.849 22.9347 204.23 23.8641 203.444 24.6451C202.659 25.4268 201.726 26.0439 200.699 26.4598C199.672 26.8756 198.574 27.0819 197.465 27.0666H197.404C196.295 27.0802 195.195 26.8729 194.168 26.4566C193.141 26.0403 192.206 25.4234 191.421 24.642C190.636 23.8605 190.012 22.9303 189.59 21.9054C189.168 20.8806 188.953 19.7818 188.96 18.6734V18.6287C188.951 17.523 189.163 16.4265 189.583 15.4036C190.003 14.3805 190.623 13.451 191.404 12.6694C192.188 11.8877 193.118 11.2693 194.141 10.8503C195.163 10.4313 196.262 10.22 197.367 10.2288ZM192.561 18.6767C192.568 21.5545 194.575 23.7773 197.453 23.7773V23.7635C200.296 23.7566 202.296 21.5204 202.289 18.639C202.281 15.7578 200.296 13.5112 197.425 13.5319C194.554 13.5525 192.555 15.7991 192.561 18.6767ZM182.802 10.5885V12.077C181.668 10.9142 179.984 10.2728 178.045 10.2764C173.36 10.2764 169.972 13.8847 169.936 18.426C169.915 19.5005 170.111 20.5683 170.51 21.5654C170.911 22.5628 171.509 23.4685 172.27 24.2288C173.028 24.9891 173.933 25.5879 174.931 25.9894C175.928 26.391 176.995 26.5868 178.07 26.5654C180.015 26.5654 181.691 25.8793 182.821 24.6755V26.5928C182.821 29.1139 181.447 30.4619 179.589 30.8734C174.958 31.7035 172.081 30.3074 172.081 30.3074L170.947 33.2161C172.599 34.2451 177.726 34.54 180.107 34.0153C183.537 33.4116 186.391 31.1683 186.381 26.6237L186.349 10.5849L182.802 10.5885ZM182.827 21.0156C182.367 21.7407 181.727 22.3324 180.966 22.7315C180.206 23.1306 179.356 23.323 178.499 23.2897C175.689 23.2897 173.645 21.1973 173.612 18.4157C173.593 17.7689 173.71 17.1254 173.954 16.5259C174.191 15.9249 174.548 15.3788 175.004 14.9206C175.458 14.4622 176.002 14.1012 176.6 13.8595C177.201 13.6179 177.841 13.5003 178.488 13.5143C179.341 13.4803 180.187 13.6671 180.948 14.0566C181.708 14.4458 182.353 15.0246 182.823 15.7369L182.827 21.0156ZM164.083 17.1916L159.232 23.7773H168.17V26.8643L154.509 26.8985V24.302C154.507 24.168 154.553 24.0375 154.639 23.9349C154.639 23.9349 163.846 12.2045 164.025 11.9712C165.091 10.5992 165.11 8.44857 163.64 7.16928C162.762 6.41131 161.133 6.20882 159.996 6.72678C159.465 6.96574 158.99 7.32125 158.615 7.76689C158.237 8.21275 157.964 8.73762 157.816 9.30275C157.796 9.3671 157.77 9.43585 157.742 9.51264C157.726 9.55441 157.71 9.59856 157.693 9.64568L154.582 8.95961C154.67 8.28444 154.88 7.63044 155.2 7.02863C156.571 4.26401 159.606 2.91262 162.525 3.28301C164.606 3.5335 166.299 4.46294 167.255 6.37002C168.429 8.71269 168.263 11.0589 166.912 13.2917C166.62 13.7617 165.06 15.9123 164.083 17.1916Z" fill="#485B60"/>
</svg>
