<svg width="151" height="34" viewBox="0 0 151 34" fill="none" xmlns="http://www.w3.org/2000/svg">
<path d="M37.0138 6.97789L28.0001 0.812971C27.2319 0.288471 26.3127 0.00683594 25.3702 0.00683594C24.4276 0.00683594 23.5084 0.288471 22.7402 0.812971L19.8056 2.81793L16.6152 4.99367L13.7265 6.97789C13.1382 7.38127 12.6585 7.91332 12.3271 8.53023C11.9959 9.14693 11.8225 9.83069 11.8212 10.5247V23.0174C11.8216 23.1785 11.7829 23.3376 11.7081 23.4817C11.6333 23.6259 11.5244 23.7512 11.3901 23.8478L8.26172 25.9175L11.2581 27.9613L13.3708 26.5617C13.9592 26.1591 14.4389 25.6275 14.7703 25.011C15.1017 24.3945 15.2749 23.7112 15.276 23.0174V10.5247C15.2762 10.359 15.3175 10.1957 15.3962 10.0484C15.4748 9.90088 15.5887 9.77327 15.7287 9.67624L24.7422 3.51384C24.9253 3.3879 25.1448 3.32022 25.3702 3.32022C25.5954 3.32022 25.815 3.3879 25.9981 3.51384L28.3505 5.12045L31.3442 7.16418L35.0143 9.67353C35.1557 9.7695 35.2707 9.89669 35.3501 10.0444C35.4293 10.1922 35.4704 10.356 35.4697 10.5222V23.0174C35.47 23.1831 35.4287 23.3466 35.3495 23.4937C35.2703 23.641 35.1553 23.7678 35.0143 23.8633L25.9981 30.0025C25.7999 30.1334 25.563 30.1994 25.3225 30.1904C25.0822 30.1816 24.8512 30.0984 24.6641 29.9532L22.9476 28.9185L19.9269 31.0114L22.7402 32.7136C23.5082 33.2385 24.4274 33.5206 25.3702 33.5206C26.3129 33.5206 27.2321 33.2385 28.0001 32.7136L37.0138 26.5514C37.6008 26.1497 38.0797 25.6197 38.4109 25.0054C38.7423 24.3907 38.9164 23.7093 38.9191 23.0174V10.5247C38.9187 9.83069 38.7456 9.14651 38.4142 8.5296C38.0828 7.91268 37.6027 7.38065 37.0138 6.97789Z" fill="#485B60"/>
<path d="M22.2984 28.5294L25.1926 26.5502C25.7792 26.1483 26.2578 25.6184 26.589 25.004C26.9202 24.3896 27.0945 23.7083 27.0976 23.0164V10.5237C27.0972 10.362 27.1362 10.2023 27.2114 10.0577C27.2868 9.91291 27.3964 9.78739 27.5315 9.69057L30.6519 7.62108L27.6582 5.57735L25.5483 6.9742C24.9601 7.37758 24.4808 7.90983 24.1498 8.52653C23.819 9.14344 23.6462 9.8272 23.6458 10.521V23.0164C23.646 23.1821 23.6048 23.3454 23.5254 23.4927C23.4462 23.6398 23.3314 23.7666 23.1904 23.8623L14.1766 30.0013C13.9936 30.1272 13.774 30.1951 13.5488 30.1951C13.3236 30.1951 13.1041 30.1272 12.921 30.0013L10.5685 28.3949L7.58007 26.3589L3.90997 23.8494C3.77087 23.7551 3.65712 23.6302 3.57794 23.4854C3.49875 23.3406 3.45644 23.1798 3.45456 23.0164V10.5237C3.45372 10.3578 3.49435 10.1941 3.57312 10.0464C3.65188 9.89866 3.76647 9.77146 3.90724 9.67507L12.921 3.51287C13.1208 3.38002 13.3603 3.31297 13.6031 3.32177C13.8461 3.33078 14.0794 3.41502 14.2684 3.56191L15.9336 4.57361L18.992 2.5039L16.1895 0.806766C15.4216 0.282057 14.5024 0 13.5597 0C12.6168 0 11.6976 0.282057 10.9297 0.806766L1.90523 6.97692C1.31617 7.37968 0.836035 7.91151 0.504636 8.52863C0.173237 9.14554 0.000209481 9.82951 0 10.5237V23.0164C0.000418962 23.7104 0.17366 24.3944 0.50506 25.0113C0.836459 25.6282 1.31638 26.1603 1.90523 26.5632L10.9188 32.7254C11.6867 33.2503 12.6062 33.5324 13.5488 33.5324C14.4915 33.5324 15.4109 33.2503 16.1789 32.7254L19.2589 30.6197L22.2957 28.5499L22.2984 28.5294Z" fill="#485B60"/>
<path d="M59.7251 3.93359H53.0045V7.75472C53.0047 8.18597 52.8296 8.60003 52.5166 8.90933C52.2037 9.21862 51.7774 9.3982 51.3285 9.41036L49.5391 9.45436V14.5535H53.0045V23.7064C53.0045 29.4908 55.3892 31.3639 65.3597 30.7403V25.4888C60.2882 25.9879 59.8975 24.6556 59.8975 23.0337V14.5456H65.3597V9.34309H59.7251V3.93359Z" fill="#485B60"/>
<path d="M86.7662 0.457031C84.341 0.457031 83.0098 0.974571 83.0098 3.72556C83.0098 6.47635 84.3356 6.99389 86.7662 6.99389C89.1564 6.99389 90.404 6.40906 90.404 3.72556C90.404 0.964299 89.1564 0.457031 86.7662 0.457031Z" fill="#485B60"/>
<path d="M90.1524 9.34277H83.3457V30.5667H90.1524V9.34277Z" fill="#485B60"/>
<path d="M107.663 8.96761C104.238 8.96761 102.072 10.0904 101.03 11.3814V1.14453H94.3135V30.5666C94.3889 30.5666 94.4616 30.5666 94.537 30.5511H94.8389C95.5911 30.5507 96.3274 30.3437 96.9603 29.9545C97.595 29.5654 98.0999 29.0103 98.4141 28.3548V28.3393C98.4685 28.2281 98.5523 28.1321 98.6571 28.0604C98.7618 27.9885 98.8833 27.9435 99.009 27.9292C99.1368 27.915 99.2667 27.9322 99.384 27.9789C99.5034 28.0258 99.606 28.1009 99.6856 28.197C100.974 29.6949 102.769 30.5899 105.319 30.8332C105.849 30.9036 106.383 30.9398 106.917 30.9417C110.773 30.9417 113.224 29.3766 114.693 27.113C114.775 26.9913 114.854 26.8543 114.93 26.7405L115.08 26.4662C115.191 26.2644 115.294 26.0601 115.39 25.848L115.46 25.6927C115.573 25.4339 115.671 25.1753 115.765 24.9166C115.765 24.8881 115.784 24.8598 115.793 24.8313C115.887 24.5545 115.973 24.2724 116.046 23.9853C116.046 23.9491 116.065 23.9181 116.073 23.8843C116.132 23.6438 116.186 23.4007 116.233 23.1522C116.251 23.0539 116.272 22.9556 116.291 22.8573C116.31 22.759 116.312 22.702 116.327 22.6245C116.471 21.7274 116.547 20.8211 116.549 19.9134C116.549 14.4599 114.513 8.96761 107.663 8.96761ZM105.367 25.5712C101.594 25.5712 100.989 23.2842 100.989 19.9134C100.989 16.6666 101.464 14.2943 105.325 14.2943C109.008 14.2943 109.613 16.6226 109.613 19.9134C109.613 23.2402 109.008 25.5712 105.367 25.5712Z" fill="#485B60"/>
<path d="M129.38 8.96777C121.317 8.96777 119.408 12.0877 119.408 16.6253H125.996C125.996 14.9179 126.776 13.6711 129.551 13.6711C132.499 13.6711 133.454 14.9644 133.454 17.4145L127.643 17.9966C121.447 18.6225 118.541 20.3249 118.541 24.4071C118.541 28.8594 122.53 30.9419 127.731 30.9419C131.095 30.9419 133.324 30.0029 134.849 28.2282C134.929 28.1314 135.033 28.056 135.153 28.0086C135.27 27.9615 135.4 27.9441 135.528 27.9585C135.656 27.9728 135.777 28.018 135.882 28.0901C135.987 28.1622 136.07 28.2588 136.125 28.3705C136.439 29.026 136.944 29.5811 137.579 29.9702C138.211 30.3593 138.949 30.5664 139.701 30.5668H140.214V18.5397C140.21 13.045 138.81 8.96777 129.38 8.96777ZM129.109 26.3628C126.64 26.3628 125.607 25.4471 125.607 24.1563C125.607 23.1576 126.432 22.4099 129.109 22.1591L133.446 21.6597C133.406 24.2831 132.147 26.3628 129.109 26.3628Z" fill="#485B60"/>
<path d="M150.826 1.14453H144.066V30.5666H150.826V1.14453Z" fill="#485B60"/>
<path d="M81.0339 8.93457C80.8157 8.93457 80.6135 8.95008 80.4034 8.95783C78.6817 8.85851 76.9746 9.31385 75.5529 10.2514C74.9385 10.6313 74.3886 11.0998 73.9227 11.6405C73.8422 11.7364 73.7377 11.8113 73.6189 11.858C73.5001 11.9045 73.3709 11.9213 73.2435 11.9068C73.1162 11.8923 72.9947 11.8471 72.8906 11.775C72.7862 11.7031 72.7029 11.6069 72.648 11.4957C72.33 10.8392 71.8226 10.2841 71.186 9.89619C70.5492 9.50832 69.8101 9.30379 69.056 9.30694H68.5413V9.35618H68.5225V30.5698H75.2835V19.7043C75.2835 16.8742 76.0648 14.1706 81.1364 14.6699V9.00959H81.0446C81.0421 8.96286 81.0394 8.93457 81.0339 8.93457Z" fill="#485B60"/>
</svg>
