<svg width="202" height="43" viewBox="0 0 202 43" fill="none" xmlns="http://www.w3.org/2000/svg">
<path fill-rule="evenodd" clip-rule="evenodd" d="M21.3737 0.538086C9.7968 0.538086 0.412109 9.92278 0.412109 21.4996C0.412109 33.0765 9.7968 42.4612 21.3737 42.4612C32.9504 42.4612 42.335 33.0765 42.335 21.4996C42.335 9.92278 32.9495 0.538086 21.3737 0.538086ZM36.4422 21.8801L36.4372 21.8843C36.4146 21.9029 36.3917 21.9197 36.3674 21.9365L36.3437 21.9526L36.2949 21.9819L36.2496 22.0081C36.0904 22.0916 35.9133 22.1352 35.7335 22.1352H25.805C25.884 22.4643 25.9733 22.8382 26.0651 23.2447C26.6089 25.5959 28.0553 31.8414 29.5907 31.8414H29.6236H29.6404H29.6699C30.8689 31.8414 31.4808 30.1088 32.8215 26.3125L32.8234 26.3074L32.8393 26.261C33.0547 25.6506 33.298 24.9621 33.5616 24.2338L33.6289 24.0479C33.6687 23.9429 33.744 23.8551 33.8418 23.7997C33.9395 23.7444 34.0535 23.7251 34.1641 23.745C34.2746 23.7651 34.3747 23.8232 34.4468 23.9092C34.5189 23.9953 34.5587 24.1039 34.5591 24.2162C34.5589 24.263 34.5522 24.3095 34.539 24.3542L34.4835 24.5411C34.3437 24.9933 34.1947 25.6093 34.0229 26.3225L34.0228 26.3227C33.2231 29.6369 32.015 34.644 28.9155 34.644H28.8929C26.8987 34.6281 25.7042 31.4538 25.1861 30.0769L25.1795 30.0593C24.2224 27.5028 23.4959 24.7786 22.7997 22.1402H13.6575L11.7599 28.209L11.7321 28.1872C11.6204 28.3633 11.4546 28.4987 11.2595 28.5727C11.0644 28.6467 10.8507 28.6555 10.6501 28.5978C10.4498 28.54 10.2733 28.4188 10.1476 28.2524C10.0216 28.0859 9.95334 27.883 9.9525 27.6745V27.6416L10.0669 26.9547C10.3289 25.3939 10.6428 23.7742 11.0013 22.1369H7.14671L7.13246 22.1226C6.78837 22.0696 6.47444 21.8954 6.24728 21.6315C6.02033 21.3676 5.89502 21.0311 5.89397 20.683C5.89229 20.3428 6.01027 20.0128 6.22779 19.751C6.44511 19.4892 6.74792 19.3125 7.0828 19.2519C7.23263 19.236 7.3833 19.2297 7.53397 19.2326H7.72174C8.94494 19.2536 10.2471 19.2731 11.6665 19.2915C13.681 11.1056 16.0146 6.95022 18.6031 6.93848C21.3812 6.93848 23.4412 13.2624 25.0902 19.449L25.0969 19.4733C28.4853 19.5416 32.0968 19.6418 35.608 19.8942L35.7553 19.9078C35.8119 19.9089 35.868 19.9139 35.9238 19.9229H35.9439L35.9617 19.9271H35.9709C36.1771 19.969 36.3672 20.0684 36.5189 20.2141C36.6709 20.3597 36.7782 20.5457 36.8285 20.75C36.8787 20.9542 36.8699 21.1686 36.8031 21.3682C36.7362 21.5675 36.6141 21.744 36.4508 21.8767L36.4422 21.8801ZM18.8884 9.97416C18.7721 9.82093 18.6398 9.74023 18.4925 9.74023C18.3842 9.74443 18.2792 9.77922 18.1895 9.84022C17.0734 10.7175 15.5461 14.4308 14.2944 19.3251L15.4024 19.3379C17.591 19.3622 19.8505 19.3884 22.0848 19.422C21.4955 17.1801 20.9389 15.2592 20.4289 13.7076C19.683 11.4415 19.1795 10.4263 18.8884 9.97416ZM52.3048 30.8505L53.9666 26.7442V26.745H63.6206L65.2824 30.8514H70.0809L60.9269 9.40836H56.663L47.477 30.8505H52.3048ZM55.6301 22.6378L58.7651 14.8315L61.9624 22.6378H55.6301ZM97.2914 22.6066V30.8514H92.9343V22.9829C92.9343 20.6006 91.7742 19.3151 89.7354 19.3151C88.8261 19.3151 87.8227 19.7225 86.9134 20.9769C86.9878 21.5171 87.0297 22.0614 87.039 22.6066V30.8514H82.6833V22.9829C82.6833 20.6006 81.5231 19.3151 79.454 19.3151C78.6122 19.3151 77.6668 19.8202 76.7896 21.0081V30.8514H72.4323V15.835H76.7896V16.7441C77.7299 15.866 78.7333 15.3644 80.4886 15.3644C82.4012 15.3644 84.0934 16.117 85.287 17.496C86.8864 16.0226 88.3908 15.3644 90.7421 15.3644C94.4075 15.3644 97.2914 18.2173 97.2914 22.6066ZM108.984 31.1642C113.123 31.1642 116.446 27.7163 116.446 23.359C116.446 18.9393 113.122 15.5223 108.984 15.5215C107.292 15.5215 105.881 15.96 104.722 16.7127V15.8346H100.364V38.0927H104.722V29.9732C105.881 30.7257 107.292 31.1642 108.984 31.1642ZM108.265 19.1893C110.523 19.1893 112.152 21.1331 112.152 23.359H112.151C112.151 25.5535 110.523 27.4645 108.265 27.467C106.979 27.467 105.694 27.0285 104.722 25.743V20.9444C105.694 19.6279 106.979 19.1893 108.265 19.1893ZM123.246 30.8508H118.89V8.59364H123.246V30.8508ZM129.799 7.9668C128.326 7.9668 127.167 9.06456 127.167 10.5377C127.167 11.9797 128.326 13.0456 129.799 13.0456C131.241 13.0456 132.402 11.9797 132.402 10.5377C132.402 9.0612 131.241 7.9668 129.799 7.9668ZM131.993 30.8518V15.8353H127.637V30.8518H131.993ZM147.823 30.6321C146.006 31.1961 145.191 31.3217 143.783 31.3217C140.147 31.3217 137.765 28.7506 137.765 24.8639V19.5032H134.6V15.8353H137.767V10.4746H142.092V15.8353H147.515V19.5032H142.092V24.8328C142.092 26.5257 143.127 27.3095 144.724 27.3095C145.539 27.3095 146.417 27.1216 147.264 26.902L147.823 30.6321ZM160.961 30.8506H165.317L165.319 15.835H160.961V25.4907C159.957 26.713 158.764 27.3714 157.67 27.3714C155.631 27.3714 154.441 26.0858 154.441 23.7035V15.835H150.082V24.111C150.082 28.4683 152.717 31.3212 156.667 31.3212C158.358 31.3212 159.737 30.7565 160.961 29.7849V30.8506ZM183.813 30.8508H179.456V29.9727C178.295 30.7253 176.885 31.1638 175.192 31.1638C171.055 31.1638 167.7 27.7468 167.7 23.3265C167.7 18.9692 171.055 15.5202 175.192 15.5202C176.885 15.5202 178.295 15.9587 179.456 16.7114V8.59364H183.813V30.8508ZM179.456 25.7417V20.9431C178.484 19.6578 177.199 19.2193 175.913 19.2193C173.624 19.2193 172.025 21.1318 172.025 23.3256C172.025 25.5513 173.624 27.4951 175.913 27.4951C177.195 27.497 178.484 27.0583 179.456 25.7417ZM190.429 24.4561H201.493C201.563 23.988 201.594 23.5151 201.588 23.0418C201.588 18.4018 198.39 15.3611 194.096 15.3611C189.362 15.3611 186.133 18.7191 186.133 23.3584C186.133 27.842 189.393 31.3212 194.222 31.3212C197.763 31.3212 200.586 29.3464 201.401 26.4623H196.854C196.384 27.2149 195.538 27.5911 194.316 27.5911C191.933 27.5911 190.772 26.2114 190.429 24.4561ZM197.262 21.8852H190.458C190.867 20.1923 192.026 18.9701 194.127 18.9701C195.881 18.9701 197.009 20.0045 197.262 21.8852Z" fill="#485B60"/>
</svg>
