<svg width="252" height="27" viewBox="0 0 252 27" fill="none" xmlns="http://www.w3.org/2000/svg">
<path fill-rule="evenodd" clip-rule="evenodd" d="M17.5264 0.958067C22.7358 0.988671 25.4836 4.7783 25.4836 8.95007H25.4997C25.4997 12.2559 24.1098 15.597 19.9074 16.5291L26.6038 24.763V25.0708H21.648L15.2016 17.0125H4.16998V25.0708H0V0.922852C1.75264 0.922852 5.25792 0.931655 8.7632 0.940459C12.2685 0.949263 15.7738 0.958067 17.5264 0.958067ZM4.18609 5.19146V12.9066L17.5425 12.911C20.1935 12.911 21.3297 10.981 21.3297 9.05132C21.3297 7.12139 20.1612 5.19146 17.5425 5.19146H4.18609ZM45.657 0.949263C49.1461 0.940459 52.6353 0.931656 54.3718 0.931656V0.922852C65.1696 0.922852 65.2019 17.9753 54.3718 17.9753H41.1082V25.0796H36.9421V0.966871C38.6786 0.966871 42.1678 0.958067 45.657 0.949263ZM41.1082 13.8079H54.3718C59.7062 13.8079 59.674 5.26189 54.3718 5.26189H41.1082V13.8079ZM130.541 12.6033C132.591 11.6009 133.413 9.81165 133.413 7.94775C133.413 3.11192 130.162 0.957907 125.803 0.957907H108.308V25.0706H125.803C130.379 25.0706 134.074 23.3517 134.074 17.9753C134.074 16.4585 133.127 13.4604 130.541 12.6033ZM112.41 5.09027H125.798C128.454 5.09027 129.271 6.94977 129.271 8.05318C129.271 9.42931 128.421 10.6382 125.798 10.6382H112.414L112.41 5.09027ZM125.798 20.8372H112.414V14.6343H125.803C127.507 14.6343 129.94 15.7685 129.94 17.9401C129.94 20.213 127.523 20.8372 125.803 20.8372H125.798ZM144.046 0.957907H148.215V20.868H166.593V25.075H144.046V0.957907ZM180.735 1.48335H176.596V25.6004H180.735V1.48335ZM209.966 20.5713C210.705 20.1338 211.383 19.5832 211.98 18.9359V18.9579C212.345 18.5584 212.667 18.1161 212.942 17.639L216.472 19.7492C216.034 20.5172 215.514 21.2268 214.925 21.8638C214.113 22.732 213.194 23.472 212.192 24.0618C211.083 24.7213 209.898 25.2193 208.669 25.5434C207.256 25.9096 205.808 26.0882 204.358 26.0752C202.346 26.1016 200.344 25.7492 198.442 25.0334C196.837 24.4324 195.352 23.4996 194.071 22.2857C192.925 21.1871 192.008 19.8347 191.38 18.3186C190.752 16.8024 190.425 15.1576 190.425 13.4936C190.425 11.8295 190.752 10.1846 191.38 8.6685C192.008 7.15235 192.925 5.79991 194.071 4.70132C195.354 3.48953 196.837 2.55674 198.442 1.95367C200.353 1.2393 202.362 0.891343 204.38 0.925091C205.787 0.913772 207.192 1.08041 208.563 1.42188C209.765 1.72498 210.928 2.19473 212.021 2.8198C213.002 3.3866 213.911 4.09322 214.723 4.9212C215.297 5.50393 215.809 6.15248 216.255 6.85532L212.742 8.97432C212.453 8.53455 212.124 8.12685 211.763 7.75667C211.162 7.15444 210.482 6.6522 209.749 6.2663C208.933 5.83973 208.076 5.51525 207.194 5.29914C206.2 5.05451 205.182 4.93356 204.164 4.9386C202.763 4.91197 201.371 5.13773 200.039 5.60685C198.933 5.99904 197.911 6.62831 197.033 7.45776C196.244 8.21719 195.62 9.1569 195.203 10.2096C194.794 11.2484 194.583 12.3674 194.588 13.498C194.585 14.617 194.796 15.7239 195.203 16.7511C195.62 17.804 196.244 18.7434 197.033 19.5031C197.911 20.3323 198.929 20.967 200.03 21.3714C201.361 21.8506 202.757 22.0824 204.159 22.0573C205.229 22.0663 206.295 21.9334 207.334 21.6615C208.249 21.4194 209.133 21.0532 209.966 20.5713ZM90.6856 0.931683C90.217 0.931054 89.7528 1.03125 89.3199 1.2264C88.8867 1.42176 88.4932 1.7083 88.1617 2.06947C87.83 2.43085 87.5671 2.85993 87.3876 3.3322C87.2083 3.80467 87.1159 4.31089 87.1159 4.82214H93.7677V13.1441C93.6442 14.2498 93.4201 15.3396 93.0989 16.3971C92.6818 17.45 92.0574 18.3895 91.2698 19.1491C90.3905 19.9794 89.3707 20.6141 88.2681 21.0174C86.0683 21.9683 83.6187 21.9683 81.4189 21.0174C80.3163 20.6141 79.2965 19.9794 78.4172 19.1491C77.6296 18.3895 77.005 17.45 76.5879 16.3971C76.2669 15.3396 76.0428 14.2498 75.9191 13.1441V0.931683H71.8016V13.1441C71.7919 14.8078 72.1106 16.4541 72.7364 17.9713C73.3621 19.4885 74.28 20.8407 75.4277 21.9362C76.7116 23.1457 78.1972 24.0741 79.8032 24.6706C83.0765 25.8302 86.6022 25.8302 89.8757 24.6706C91.4811 24.0696 92.9654 23.1369 94.2473 21.923C95.395 20.8275 96.3127 19.4753 96.9386 17.9581C97.5642 16.4409 97.8831 14.7946 97.8734 13.1309V0.931683H90.6856ZM226.777 25.596L236.513 5.45305H238.093L243.438 16.4916H234.292C234.292 17.0175 234.387 17.5384 234.573 18.0243C234.757 18.5102 235.027 18.9517 235.368 19.3235C235.709 19.6954 236.114 19.9905 236.558 20.1917C237.004 20.393 237.481 20.4965 237.963 20.4965H245.38L247.855 25.596H252L240.352 1.48335H234.203V1.63281L222.632 25.596H226.777Z" fill="#485B60"/>
</svg>
