<svg width="232" height="27" viewBox="0 0 232 27" fill="none" xmlns="http://www.w3.org/2000/svg">
<path d="M0.746357 1.6223C1.29122 0.658069 2.55502 0.915059 3.3948 1.30725C9.48651 3.87651 15.5557 6.51221 21.6165 9.15043C23.1612 9.58706 22.459 11.4241 22.459 12.5707C19.1168 12.6066 15.7719 12.5707 12.427 12.5982C11.5031 12.5596 10.4049 12.7585 9.70842 11.9987C6.95871 9.42942 4.3047 6.7497 1.61707 4.12804C0.984967 3.48704 0.0581533 2.5423 0.757489 1.6223H0.746357ZM40.5627 2.6666C42.0344 2.08366 43.4415 1.28524 45.0029 0.950899C45.9803 0.746524 46.4072 1.7466 46.8846 2.36266C44.8175 5.37127 41.8461 7.61164 39.3299 10.2473C38.2372 11.2003 37.2768 12.7805 35.6084 12.5955C31.9995 12.5955 28.3906 12.5734 24.776 12.5955C24.5456 11.5319 23.9727 9.85222 25.3097 9.28039C30.3649 7.03708 35.4737 4.86002 40.5627 2.67478V2.6666ZM70.4595 3.11686C70.7402 2.44274 71.5183 2.697 72.0827 2.62783C77.0426 2.65822 81.9997 2.62782 86.9678 2.64732C90.0572 2.69699 92.8881 5.13357 93.2843 8.15308C93.888 11.6312 90.9813 15.2393 87.3863 15.3968C83.1511 15.4852 78.9103 15.3387 74.6778 15.4521C73.852 17.6623 74.8069 20.2617 74.1948 22.5769C73.091 23.4057 71.8299 24.2484 70.3863 24.3092C70.3863 20.4772 70.4257 16.6427 70.4061 12.8109C70.3555 12.2833 70.4818 11.3937 71.2485 11.5373C76.3685 11.4711 81.494 11.5677 86.6139 11.5069C87.8722 11.5761 89.2232 10.6423 89.2653 9.34118C89.5461 7.8244 88.1419 6.48454 86.6364 6.53694C81.3003 6.44031 75.9641 6.62812 70.656 6.45687C70.246 5.40167 70.3751 4.22195 70.4706 3.11686H70.4595ZM116.117 24.2897C116.092 17.0737 116.008 9.85222 116.162 2.63894C123.821 2.6666 131.489 2.58087 139.148 2.68044C138.734 4.02575 138.212 5.56726 137.057 6.43214C131.41 6.63651 125.731 6.46798 120.072 6.50948C120.041 8.16691 120.044 9.85767 120.052 11.5346C125.579 11.518 131.108 11.518 136.64 11.5346C136.719 12.8193 136.721 14.1122 136.679 15.4024C131.135 15.4575 125.596 15.4024 120.052 15.4299C120.052 17.0875 120.052 18.7451 120.052 20.4028C125.388 20.3833 130.705 20.4028 136.03 20.4028C137.995 20.2867 138.327 22.7067 139.28 23.9279C138.773 24.2279 138.185 24.3748 137.595 24.3505C130.435 24.3201 123.271 24.3893 116.115 24.3146L116.117 24.2897ZM161.869 2.79908C162.43 2.22453 162.97 3.05879 163.471 3.27993C169.44 7.80511 175.441 12.2806 181.395 16.8169C181.484 12.7862 181.283 8.74713 181.484 4.72754C182.377 3.58933 183.839 3.03951 185.171 2.53664C185.47 3.36546 185.41 4.25507 185.418 5.11973C185.361 11.308 185.458 17.5047 185.373 23.6931C185.59 24.6683 184.393 24.3727 183.969 23.9222C177.889 19.3392 171.832 14.7199 165.736 10.1589C165.659 14.2172 165.87 18.2892 165.645 22.3394C164.764 23.4443 163.222 24.1323 161.79 24.367C161.729 17.9467 161.79 11.5264 161.751 5.10317C161.724 4.33137 161.764 3.55894 161.869 2.79363V2.79908ZM208.35 10.9296C209.455 6.15859 214.2 2.52008 219.177 2.6555C223.108 2.73284 227.026 2.50625 230.938 2.76596C230.899 4.16661 229.998 5.38217 229.138 6.43758C225.572 6.75242 221.963 6.32984 218.393 6.6254C215.467 6.97902 212.858 9.19193 212.214 12.0375C211.169 15.9051 214.402 20.154 218.434 20.3806C221.468 20.4359 224.504 20.3806 227.539 20.3806C227.539 18.7229 227.539 17.0821 227.539 15.4328C225.273 15.3995 223 15.4879 220.734 15.4106C219.76 15.5156 219.435 14.4023 218.983 13.7724C218.702 13.0899 217.96 12.3911 218.335 11.6119C222.021 11.4157 225.723 11.6119 229.416 11.5208C230.084 11.6092 230.955 11.308 231.452 11.9104C231.557 16.0155 231.452 20.1292 231.489 24.2373C228.705 24.4278 225.914 24.3008 223.13 24.3312C220.233 24.2897 217.16 24.671 214.483 23.3091C209.803 21.3033 206.999 15.7946 208.364 10.9242L208.35 10.9296ZM9.62407 15.0211C10.343 14.242 11.4748 14.4464 12.4325 14.4078C15.8028 14.4602 19.1561 14.3636 22.5151 14.4713C22.546 15.524 23.1274 17.1814 21.8326 17.7147C16.5751 20.0381 11.2896 22.2952 6.00674 24.5687C4.62766 25.1212 3.28797 25.8838 1.79381 26.0771C1.04127 25.8534 0.36998 25.1489 0.521561 24.3228C0.990741 23.2787 1.90353 22.5272 2.69835 21.7232C5.03208 19.5132 7.24516 17.1732 9.63808 15.0211H9.62407ZM24.6861 14.4686C28.1883 14.4023 31.7075 14.4686 35.1984 14.4243C35.9287 14.4797 36.8076 14.3277 37.3723 14.8995C39.942 17.2615 42.3939 19.7425 44.9019 22.1652C45.5478 22.8505 46.3061 23.4858 46.6571 24.3754C46.8594 25.5744 45.3653 26.508 44.312 25.8672C37.9733 23.298 31.7242 20.5021 25.4557 17.7755C24.015 17.2892 24.5401 15.5791 24.6861 14.474" fill="#485B60"/>
</svg>
