<svg width="95" height="195" viewBox="0 0 95 195" fill="none" xmlns="http://www.w3.org/2000/svg">
<path d="M51.6982 180.891C48.5897 182.028 45.4937 183.237 42.3776 184.313C37.476 186.011 32.562 187.636 27.6575 189.287C27.3855 189.385 27.1005 189.468 26.8251 189.577C25.7369 189.97 24.8077 190.621 24.6894 192.175C24.586 193.457 25.4456 194.376 26.9269 194.234C28.5103 194.08 30.1007 193.73 31.6743 193.191C41.5791 189.812 51.4772 186.389 61.3685 182.921C64.3789 181.869 65.2541 179.447 63.2733 176.916C60.4266 173.233 57.4127 169.739 54.366 166.293C52.2721 163.922 50.0205 161.766 47.8314 159.526C47.4614 159.08 47.0578 158.678 46.6245 158.324C46.422 158.123 46.1826 157.98 45.9202 157.904C45.6578 157.828 45.3778 157.821 45.0965 157.882C44.8153 157.943 44.5385 158.072 44.2824 158.261C44.0264 158.449 43.7962 158.694 43.6055 158.981C42.7724 160.285 43.0808 161.479 44.2295 162.639C47.8738 166.367 51.4639 170.182 55.0606 173.976C55.3317 174.393 55.5601 174.852 55.7415 175.346C54.4856 175.643 53.2429 175.466 52.1815 174.839C47.3144 172.603 42.3831 170.485 37.6548 167.924C31.5427 164.614 25.8405 160.438 20.6471 155.47C10.4994 145.607 4.77272 132.383 4.41975 115.27C4.27542 109.641 5.05531 103.866 6.71405 98.2795C8.37279 92.693 10.8773 87.4066 14.082 82.7276C14.5912 81.9663 15.1261 81.2363 15.6706 80.5324C16.0041 80.2047 16.357 79.9112 16.7249 79.6557C17.026 80.7316 17.2969 81.7057 17.5483 82.6852C19.9892 92.5383 25.553 100.307 33.1122 104.416C42.1554 109.407 51.5615 108.135 60.7812 99.9399C63.9165 97.2557 66.4361 93.5503 67.9921 89.3352C69.5481 85.1202 70.0638 80.6033 69.4679 76.4083C68.8844 72.6767 67.4759 69.3524 65.3862 66.7742C58.584 57.8688 49.5355 55.6791 39.062 58.0664C33.2795 59.5348 27.6533 62.5932 22.6207 67.0039C22.0502 67.4804 21.4344 67.931 20.8609 68.3605C20.7123 68.4633 20.5016 68.3964 20.0707 68.4328C20.1591 66.9729 20.1955 65.508 20.3472 64.0451C21.3566 54.9865 24.7132 46.1425 29.9086 38.8531C34.8585 31.8912 40.5799 25.803 46.8516 20.8241C58.1345 11.5536 70.0696 6.07734 82.8358 5.54763C85.9163 5.37134 88.9532 5.38885 91.7139 6.78359C92.7064 7.28299 93.6949 7.20437 94.4569 5.8428C94.6008 5.51752 94.689 5.16763 94.7154 4.81772C94.7417 4.46781 94.7056 4.12645 94.6096 3.8177C94.5135 3.50896 94.3599 3.24034 94.1595 3.03082C93.9591 2.8213 93.7168 2.676 93.4497 2.60511C91.5518 1.7466 89.5445 1.18342 87.4688 0.927085C78.4905 0.0867339 69.1527 2.00531 60.2583 6.51779C49.668 11.9333 39.8195 19.9552 31.3849 30.0362C24.4289 38.2107 19.2072 47.6967 17.0912 58.9522C16.439 62.9613 16.0593 66.9812 15.9562 70.9686C15.978 71.6836 15.8694 72.4193 15.6384 73.1235C15.4073 73.8276 15.0593 74.483 14.6192 75.043C0.845002 92.5892 -2.58235 111.86 2.40008 132.184C5.29087 144.02 11.1341 153.992 19.1872 160.832C28.6189 169.185 39.2189 175.575 50.6449 179.796C50.9854 179.904 51.3425 179.96 51.6929 180.036L51.6982 180.891ZM21.7129 81.3417C21.3756 79.8736 21.105 78.842 20.9031 77.7629C20.386 75.0613 20.4521 74.9093 22.3924 73.0679C26.111 69.5304 30.2038 66.7209 34.4939 64.7607C40.2543 62.0185 46.3026 61.4205 51.8199 63.0476C56.7943 64.2984 61.0056 67.7119 63.7434 72.7124C66.9108 78.6192 66.2965 85.9564 61.9804 92.1654C60.7562 93.9438 59.3398 95.5144 57.7826 96.8203C54.78 99.3868 51.4209 101.103 47.9919 101.823C44.563 102.543 41.1661 102.246 38.0913 100.955C29.7891 97.791 24.6464 90.6578 21.6805 81.3314L21.7129 81.3417Z" fill="#E51B20"/>
</svg>
