<svg width="1816" height="1571" viewBox="0 0 1816 1571" fill="none" xmlns="http://www.w3.org/2000/svg">
<circle cx="41" cy="1530" r="41" fill="#E51B20"/>
<circle cx="1661" cy="1111" r="15" fill="#2F2F2F"/>
<path d="M1526.64 23.9499C1552.85 10.8867 1610.7 1.93347 1632.38 70.6258C1633.01 90.5707 1623.8 129.838 1581.93 127.35C1529.59 124.24 1583.8 45.9323 1646.38 85.0877C1696.45 116.412 1700.16 152.961 1695.75 167.32C1695.43 175.479 1690.78 193.441 1674.72 200.021C1654.66 208.245 1649.01 169.995 1682.66 166.543C1716.32 163.09 1762.28 173.503 1763.07 231.042C1763.69 277.073 1735.23 297.619 1720.92 302.138" stroke="#E51B20" stroke-width="3"/>
<circle cx="25" cy="200" r="20" fill="#2F2F2F"/>
<circle cx="1738" cy="1056" r="20" fill="#E51B20"/>
</svg>
