<svg width="1976" height="1124" viewBox="0 0 1976 1124" fill="none" xmlns="http://www.w3.org/2000/svg">
<circle cx="1957" cy="303" r="19" fill="#E51B20"/>
<circle cx="249.5" cy="215.5" r="12.5" fill="#E51B20"/>
<circle cx="37.5" cy="897.5" r="12.5" fill="#E51B20"/>
<circle cx="134.5" cy="1030.5" r="12.5" fill="#2F2F2F"/>
<circle cx="1819.5" cy="122.5" r="12.5" fill="#2F2F2F"/>
<path d="M9.40913 226.214C-2.07705 199.27 -7.58523 140.992 62.2714 123.424C64.533 123.487 67.0351 123.69 69.6867 124.063M69.6867 124.063C90.4226 126.977 120.308 140.221 115.905 177.15C110.174 225.223 45.8317 178.812 69.6867 124.063ZM69.6867 124.063C71.6676 119.517 74.2567 114.913 77.538 110.301C110.748 63.6218 146.28 60.7811 161.226 65.444M161.226 65.444C161.688 65.5882 162.13 65.7395 162.552 65.8969C170.677 66.7005 188.332 72.4108 193.949 88.8232C200.97 109.339 162.451 112.713 161 78.9131C160.814 74.5707 160.868 70.039 161.226 65.444ZM161.226 65.444C163.653 34.2739 180.054 0.189077 230.152 2.47739C276.14 4.57791 294.962 34.2067 298.625 48.7585" stroke="#E51B20" stroke-width="3"/>
<path d="M1832.64 865.035C1837.44 865.908 1842.27 866.68 1847.03 867.636C1854.53 869.133 1861.98 870.733 1869.44 872.292C1869.86 872.37 1870.29 872.478 1870.72 872.545C1872.39 872.857 1874.06 872.723 1875.37 870.836C1876.45 869.284 1876.05 867.477 1874.06 866.552C1871.93 865.568 1869.65 864.826 1867.25 864.338C1852.15 861.246 1837.02 858.215 1821.87 855.246C1817.26 854.339 1814.34 856.762 1814.97 861.455C1815.84 868.257 1817.07 874.942 1818.37 881.592C1819.26 886.166 1820.51 890.583 1821.62 895.061C1821.76 895.903 1821.98 896.715 1822.26 897.488C1822.37 897.895 1822.57 898.254 1822.84 898.546C1823.12 898.838 1823.47 899.057 1823.87 899.189C1824.28 899.321 1824.72 899.363 1825.19 899.315C1825.66 899.266 1826.13 899.126 1826.59 898.904C1828.62 897.868 1829.12 896.122 1828.52 893.791C1826.67 886.338 1824.95 878.815 1823.21 871.313C1823.18 870.582 1823.23 869.828 1823.37 869.066C1825.19 869.624 1826.63 870.775 1827.51 872.363C1832.03 878.833 1836.72 885.2 1840.81 891.979C1846.11 900.741 1850.24 910.297 1853.14 920.481C1858.68 940.577 1856.09 961.647 1843.78 983.652C1839.77 990.91 1834.47 997.666 1828.2 1003.53C1821.93 1009.39 1814.8 1014.24 1807.24 1017.79C1806.03 1018.38 1804.8 1018.91 1803.59 1019.4C1802.92 1019.56 1802.25 1019.67 1801.59 1019.72C1802.01 1018.13 1802.4 1016.69 1802.81 1015.26C1807.05 1000.92 1805.78 986.906 1799.24 976.049C1791.47 962.966 1778.57 957.57 1760.75 961.107C1754.76 962.179 1748.8 965.008 1743.68 969.203C1738.56 973.398 1734.54 978.752 1732.17 984.526C1730.13 989.702 1729.44 994.975 1730.17 999.808C1732.17 1016.19 1742.03 1025.72 1757.12 1030.5C1765.56 1032.94 1774.99 1033.25 1784.67 1031.4C1785.75 1031.22 1786.87 1031.11 1787.92 1030.99C1788.18 1030.97 1788.4 1031.21 1788.98 1031.49C1787.78 1033.28 1786.64 1035.11 1785.35 1036.86C1777.32 1047.61 1766.46 1056.34 1754.42 1061.73C1742.95 1066.89 1731.14 1070.35 1719.46 1072C1698.21 1075.37 1678.97 1073.43 1662.35 1064.58C1658.31 1062.51 1654.46 1060.22 1651.99 1056.39C1651.11 1055.02 1649.79 1054.38 1647.81 1055.54C1647.38 1055.85 1647.01 1056.23 1646.72 1056.65C1646.42 1057.08 1646.21 1057.54 1646.1 1058C1646 1058.47 1645.99 1058.92 1646.09 1059.34C1646.19 1059.75 1646.39 1060.12 1646.67 1060.41C1648.45 1062.91 1650.58 1065.13 1653.02 1067C1663.8 1074.76 1677.1 1079.29 1691.76 1080.18C1709.25 1081.2 1727.74 1078.35 1745.98 1071.83C1760.91 1066.63 1774.61 1058.47 1785.69 1045.75C1789.51 1041.15 1792.99 1036.32 1796.09 1031.33C1796.6 1030.41 1797.29 1029.55 1798.11 1028.83C1798.92 1028.11 1799.85 1027.54 1800.83 1027.15C1831.41 1015.13 1850.13 993.204 1858.96 963.669C1864.11 946.477 1864.12 929.452 1858.99 914.758C1853.23 897.114 1844.53 881.093 1833.16 867.211C1832.81 866.82 1832.4 866.484 1832.01 866.125L1832.64 865.035ZM1796.52 1013.86C1795.85 1015.98 1795.42 1017.49 1794.88 1019.01C1793.52 1022.83 1793.32 1022.97 1789.48 1023.87C1782.12 1025.59 1774.83 1026.11 1767.92 1025.4C1758.55 1024.59 1750.42 1020.84 1744.63 1014.66C1739.24 1009.36 1736.43 1001.88 1736.68 993.489C1737.06 983.623 1743.31 974.76 1753.43 970.09C1756.31 968.743 1759.28 967.804 1762.23 967.306C1767.96 966.284 1773.51 966.607 1778.4 968.249C1783.29 969.891 1787.39 972.802 1790.33 976.734C1798.52 986.943 1799.73 999.84 1796.55 1013.9L1796.52 1013.86Z" fill="#2F2F2F"/>
</svg>
