<svg width="70" height="70" viewBox="0 0 70 70" fill="none" xmlns="http://www.w3.org/2000/svg">
<g clip-path="url(#clip0_11_1108)">
<path d="M70.0011 68.5888C70.0141 69.7191 69.0249 70.2973 68.0128 69.8465C65.8842 68.8991 63.7653 67.9224 61.6432 66.9619C47.1574 60.3892 32.6749 53.8132 18.1858 47.2438C16.2139 46.3487 16.1029 45.679 17.6308 44.1502C22.2668 39.5147 26.8897 34.8661 31.5159 30.224C35.7797 25.9478 40.0435 21.6684 44.3073 17.3922C45.4761 16.2194 46.338 16.3762 47.0268 17.8953C52.6814 30.3351 58.3327 42.7716 63.9841 55.2114C65.8809 59.3831 67.7777 63.5514 69.668 67.7231C69.8117 68.0432 69.9194 68.3764 69.9978 68.592L70.0011 68.5888ZM21.1372 45.6431C23.9351 46.9106 26.6253 48.1226 29.3024 49.3607C29.6517 49.524 29.9129 49.4521 30.2165 49.3117C37.8006 45.7672 45.3847 42.2261 52.9753 38.6947C53.4127 38.4922 53.4911 38.3027 53.2724 37.8421C52.4562 36.1303 51.6661 34.4022 50.9282 32.6577C50.6605 32.0273 50.4255 31.9195 49.779 32.2233C42.43 35.6958 35.068 39.1324 27.7059 42.5789C25.5512 43.5883 23.3931 44.5912 21.1405 45.6431H21.1372ZM32.8316 50.9614C35.734 52.2779 38.447 53.4996 41.147 54.7475C41.4865 54.9043 41.7151 54.7737 41.9762 54.6528C46.9877 52.3301 51.9958 49.9977 57.017 47.6913C57.5035 47.4692 57.5786 47.283 57.3468 46.793C56.5077 45.0322 55.7013 43.2551 54.9243 41.4682C54.6991 40.9455 54.5423 40.7985 53.9514 41.0827C50.4353 42.7683 46.893 44.4017 43.3605 46.0482C39.9096 47.6587 36.4555 49.2659 32.8316 50.9581V50.9614ZM24.637 40.9847C24.6827 40.9847 24.7741 41.0108 24.8394 40.9814C32.9132 37.2181 40.987 33.445 49.0641 29.6883C49.5407 29.4661 49.3318 29.2146 49.2012 28.9238C48.2805 26.9017 47.3598 24.8796 46.4424 22.8575C46.0539 22.0016 45.6622 21.1457 45.2737 20.2996C38.3654 27.2219 31.5028 34.1049 24.637 40.9847ZM44.7382 56.2568C44.7872 56.3221 44.8101 56.3874 44.8525 56.407C47.5329 57.6386 50.2165 58.8636 52.8969 60.0952C53.1385 60.2063 53.3572 60.1867 53.5923 60.0756C56.1421 58.8767 58.6919 57.6811 61.2449 56.492C61.5453 56.3515 61.6334 56.211 61.4767 55.8746C60.5985 53.9831 59.7366 52.0819 58.8845 50.1773C58.7441 49.8637 58.6233 49.7984 58.287 49.9585C53.7784 52.0655 49.2599 54.1562 44.735 56.2535L44.7382 56.2568ZM56.3543 61.66C59.6191 63.1431 62.7728 64.5772 66.1225 66.0995C64.9831 63.5972 63.9351 61.3137 62.9034 59.0237C62.7826 58.7591 62.6488 58.7101 62.4039 58.8244C60.4222 59.7555 58.4405 60.6832 56.351 61.66H56.3543Z" fill="#E51B20"/>
<path d="M27.6303 15.3897C27.4344 16.6082 27.2418 18.0651 26.948 19.4992C26.8109 20.1787 27.0557 20.4531 27.6205 20.7177C28.8448 21.2927 30.0365 21.9428 31.2477 22.5471C31.8321 22.8379 32.2369 23.256 32.1586 23.9388C32.077 24.664 31.5611 24.9939 30.8886 25.1148C29.4978 25.3598 28.1135 25.6309 26.7162 25.8302C26.0959 25.9184 25.8771 26.1928 25.8021 26.8004C25.6356 28.1757 25.3744 29.5347 25.172 30.9067C25.074 31.5699 24.7639 32.0403 24.0946 32.171C23.3796 32.3147 22.9062 31.9488 22.5928 31.3281C21.9431 30.0443 21.2575 28.7801 20.6568 27.4766C20.425 26.9736 20.1442 26.8821 19.6545 26.967C18.2637 27.2055 16.8664 27.408 15.4756 27.6334C14.7965 27.7413 14.2219 27.6171 13.8954 26.9474C13.5657 26.2679 13.8628 25.7551 14.3427 25.2781C15.3678 24.2654 16.3669 23.2266 17.4051 22.227C17.7283 21.9166 17.7936 21.6847 17.565 21.2665C16.8762 20.0056 16.2493 18.7119 15.5866 17.4379C15.2568 16.8042 15.172 16.1835 15.727 15.6445C16.2526 15.1349 16.8435 15.21 17.4508 15.5334C18.6946 16.1933 19.9581 16.8172 21.1955 17.4934C21.6003 17.7156 21.8386 17.6895 22.1651 17.3464C23.1968 16.2651 24.2676 15.2231 25.3254 14.1646C25.7727 13.7171 26.295 13.5701 26.8827 13.8379C27.4377 14.0895 27.6858 14.5436 27.6271 15.3831L27.6303 15.3897ZM19.6186 19.7769C19.883 20.2931 20.1181 20.7439 20.3434 21.1947C20.8135 22.1257 20.7384 22.521 20.0006 23.2919C19.6414 23.6676 19.204 23.9747 18.8089 24.6738C21.1106 23.6447 22.5177 24.2785 23.1739 26.6959C23.0858 24.2295 24.186 23.0959 26.5987 23.256C26.0665 22.8967 25.6323 22.6288 25.1687 22.4328C24.297 22.0702 24.0293 21.443 24.1762 20.5413C24.2513 20.0905 24.457 19.6332 24.2807 19.0942C23.4775 19.607 23.1021 20.6263 22.1292 20.7047C21.2118 20.7798 20.5621 19.9304 19.6186 19.7769Z" fill="#E51B20"/>
<path d="M30.9518 13.6258C30.9975 8.92826 32.3556 4.65534 35.0915 0.829973C35.6922 -0.00958316 36.4268 -0.221922 37.0896 0.232157C37.7588 0.692769 37.8372 1.48332 37.2561 2.30328C34.0533 6.82773 32.9368 11.8259 33.8574 17.2846C33.9031 17.5492 33.9488 17.8269 33.9162 18.0915C33.8378 18.7416 33.2469 19.2806 32.6397 19.2414C31.9737 19.1957 31.5068 18.8298 31.3925 18.1568C31.1346 16.6574 30.9387 15.1482 30.9518 13.6226V13.6258Z" fill="#E51B20"/>
<path d="M17.4773 34.0136C16.3901 33.8665 15.1332 33.6575 13.8501 33.6542C9.68099 33.6542 5.89059 34.8368 2.4789 37.2313C2.34504 37.326 2.21445 37.424 2.07407 37.5057C1.37214 37.9141 0.617979 37.7605 0.213147 37.1333C-0.172097 36.5355 -0.0382409 35.807 0.601655 35.3366C2.44625 33.9776 4.45409 32.9159 6.63169 32.1907C10.3405 30.9559 14.1178 30.7109 17.9572 31.459C18.8224 31.6288 19.2957 32.145 19.2272 32.8604C19.1521 33.6313 18.5677 34.0626 17.4773 34.0103V34.0136Z" fill="#E51B20"/>
<path d="M47.8797 5.98834C47.9026 6.30848 47.71 6.62209 47.4325 6.90303C44.3668 10.0162 42.3786 13.7142 41.4122 17.9741C41.1902 18.9476 40.5013 19.4278 39.7341 19.235C38.9996 19.0521 38.6633 18.353 38.8788 17.3991C39.9365 12.7081 42.1109 8.62135 45.4736 5.17492C45.9241 4.71431 46.4139 4.42683 47.0668 4.69144C47.5957 4.90705 47.8732 5.31212 47.8797 5.98507V5.98834Z" fill="#E51B20"/>
<path d="M19.1651 40.0769C19.1521 40.8283 18.7309 41.2333 17.6372 41.4751C15.2899 41.9945 13.0927 42.8896 11.0326 44.1309C9.56018 45.0162 8.21836 46.0714 6.98427 47.267C6.23664 47.9923 5.56736 48.0576 4.99929 47.4957C4.41163 46.911 4.48019 46.1498 5.21477 45.4311C8.67542 42.0435 12.7858 39.858 17.5066 38.8029C18.4273 38.5971 19.1749 39.1851 19.1619 40.0769H19.1651Z" fill="#E51B20"/>
</g>
<defs>
<clipPath id="clip0_11_1108">
<rect width="70" height="70" fill="white"/>
</clipPath>
</defs>
</svg>
