<svg width="21" height="20" viewBox="0 0 21 20" fill="none" xmlns="http://www.w3.org/2000/svg">
<path d="M4.91675 6.42529H0.833984V19.445H4.91675V6.42529Z" fill="#C3C4C5"/>
<path d="M15.9613 6.14288C15.8108 6.12406 15.6508 6.11465 15.4909 6.10525C13.2049 6.01117 11.9162 7.36582 11.4646 7.94908C11.3423 8.109 11.2859 8.20307 11.2859 8.20307V6.46272H7.38184V19.4824H11.2859H11.4646C11.4646 18.156 11.4646 16.839 11.4646 15.5125C11.4646 14.7976 11.4646 14.0826 11.4646 13.3677C11.4646 12.4834 11.3988 11.5427 11.8409 10.7336C12.2172 10.0563 12.8945 9.71765 13.6565 9.71765C15.9143 9.71765 15.9613 11.759 15.9613 11.9472C15.9613 11.9566 15.9613 11.966 15.9613 11.966V19.5389H20.0441V11.0441C20.0441 8.13722 18.5671 6.42509 15.9613 6.14288Z" fill="#C3C4C5"/>
<path d="M2.87552 4.74128C4.18478 4.74128 5.24616 3.67991 5.24616 2.37064C5.24616 1.06137 4.18478 0 2.87552 0C1.56625 0 0.504883 1.06137 0.504883 2.37064C0.504883 3.67991 1.56625 4.74128 2.87552 4.74128Z" fill="#C3C4C5"/>
</svg>
