<svg width="18" height="17" viewBox="0 0 18 17" fill="none" xmlns="http://www.w3.org/2000/svg">
<path d="M14.7902 16.7477H3.6411C2.10045 16.7477 0.841797 15.489 0.841797 13.9484V2.7993C0.841797 1.25865 2.10045 0 3.6411 0H14.7902C16.3308 0 17.5895 1.25865 17.5895 2.7993V13.9484C17.5895 15.4959 16.3377 16.7477 14.7902 16.7477Z" fill="#C3C4C5"/>
<path d="M9.2186 12.676C8.07 12.676 6.99017 12.2289 6.17857 11.4173C5.36698 10.6057 4.91992 9.5259 4.91992 8.37729C4.91992 7.22869 5.36698 6.14886 6.17857 5.33727C6.99017 4.52568 8.07 4.07861 9.2186 4.07861C10.3672 4.07861 11.447 4.52568 12.2586 5.33727C13.0702 6.14886 13.5173 7.22869 13.5173 8.37729C13.5173 9.5259 13.0702 10.6057 12.2586 11.4173C11.4402 12.2289 10.3672 12.676 9.2186 12.676ZM9.2186 4.99337C7.35469 4.99337 5.83468 6.50651 5.83468 8.37729C5.83468 10.2412 7.34782 11.7612 9.2186 11.7612C11.0825 11.7612 12.6025 10.2481 12.6025 8.37729C12.5956 6.51339 11.0825 4.99337 9.2186 4.99337Z" fill="#FAF8FF"/>
<path d="M14.3556 3.93736C14.8115 3.93736 15.181 3.56783 15.181 3.11199C15.181 2.65615 14.8115 2.28662 14.3556 2.28662C13.8998 2.28662 13.5303 2.65615 13.5303 3.11199C13.5303 3.56783 13.8998 3.93736 14.3556 3.93736Z" fill="#FAF8FF"/>
</svg>
