<svg width="21" height="18" viewBox="0 0 21 18" fill="none" xmlns="http://www.w3.org/2000/svg">
<path d="M0.200195 15.4201C2.3961 15.545 4.31632 15.026 6.18901 13.6515C4.29731 13.3247 2.98548 12.4501 2.27252 10.6431C2.82387 10.5662 3.30868 10.7104 3.87905 10.4797C2.01586 9.65312 0.808585 8.41322 0.761055 6.26983C1.35043 6.31789 1.79722 6.71197 2.50067 6.6543C0.789578 4.96265 0.266738 3.11723 1.34092 0.877725C3.12806 2.95383 5.2194 4.36674 7.77653 5.02994C7.91912 5.06838 8.0522 5.10683 8.19479 5.13566C8.85071 5.28945 9.63021 5.61624 10.0295 5.56819C10.7139 5.48168 10.0295 4.68392 10.2006 3.64587C10.7424 0.416368 14.2597 -1.05421 16.8643 0.839278C17.6248 1.39675 18.2237 1.38714 18.9747 1.05073C19.3644 0.877725 19.7637 0.704716 20.2295 0.502872C20.1249 1.42559 19.4215 1.935 18.8606 2.61742C19.4975 2.7616 20.0108 2.57898 20.6002 2.38675C20.4006 3.04995 19.9063 3.4248 19.4595 3.79004C18.9937 4.16489 18.8131 4.55897 18.794 5.17411C18.5089 14.4878 8.0427 21.6868 0.884638 15.9583C0.190696 15.4009 0.865619 15.9583 0.200195 15.4201Z" fill="#C3C4C5"/>
</svg>
