<svg width="82" height="82" viewBox="0 0 82 82" fill="none" xmlns="http://www.w3.org/2000/svg">
<g clip-path="url(#clip0_11_1613)">
<path d="M40.9856 82.0001C29.75 82.0001 18.5145 82.0001 7.27572 82.0001C2.79687 82.0001 0 79.1999 0 74.7144C0 55.017 0 35.3196 0 15.6221C0 11.1303 2.79367 8.33654 7.27892 8.33654C8.65013 8.33654 8.63411 8.33654 8.65333 6.9813C8.66935 6.02334 8.55402 5.06217 8.76226 4.10742C9.31971 1.51548 11.6777 -0.233833 14.2695 0.0256814C16.8293 0.281991 18.806 2.42218 18.8797 5.03334C18.9053 5.94004 18.9085 6.84994 18.8797 7.75663C18.8669 8.18595 18.9566 8.34935 19.434 8.34615C24.7458 8.32692 30.0576 8.33013 35.3662 8.34615C35.7859 8.34615 35.8948 8.23081 35.9012 7.8143C35.9173 6.59042 35.7763 5.36014 36.0102 4.13946C36.4939 1.6084 38.8166 -0.163347 41.4117 0.0192736C43.9619 0.198691 46.0443 2.3581 46.1148 4.9212C46.1404 5.88237 46.1436 6.84353 46.1148 7.80469C46.102 8.21799 46.2141 8.34615 46.6434 8.34294C51.9552 8.33013 57.267 8.33013 62.5757 8.34294C62.9889 8.34294 63.1075 8.24042 63.1139 7.8143C63.1331 6.56479 62.9761 5.30567 63.2324 4.06257C63.7514 1.54111 66.119 -0.211405 68.6948 0.0224775C71.2226 0.249953 73.2441 2.37412 73.3307 4.9148C73.3595 5.79586 73.3755 6.67693 73.3307 7.55479C73.2986 8.15391 73.4332 8.391 74.0931 8.34935C75.128 8.28207 76.166 8.31411 77.1848 8.61848C79.9432 9.44828 81.9167 11.9601 81.9808 14.8372C82.016 16.5192 81.9936 18.2013 81.9936 19.8801C81.9936 38.2415 81.9936 56.6061 81.9936 74.9676C81.9936 78.6264 79.751 81.324 76.214 81.9168C75.7174 82.0001 75.2048 81.9936 74.6987 81.9936C63.4631 81.9968 52.2275 81.9936 40.9888 81.9936L40.9856 82.0001Z" fill="#E51B20"/>
<path d="M40.9955 72.3916C29.7343 72.3916 18.4731 72.3916 7.20876 72.3916C4.5977 72.3916 3.20407 71.0043 3.20407 68.4028C3.20407 56.1255 3.21368 43.8515 3.18164 31.5742C3.18164 30.8245 3.41231 30.738 4.06588 30.738C13.754 30.7572 23.439 30.7508 33.1271 30.7508C33.393 30.7508 33.6621 30.7668 33.928 30.738C34.7802 30.6483 35.4018 29.9466 35.3857 29.1168C35.3697 28.3191 34.761 27.6527 33.9473 27.5598C33.6846 27.5309 33.4154 27.5469 33.1463 27.5469C23.4325 27.5469 13.7188 27.5373 4.005 27.563C3.33862 27.563 3.17844 27.4092 3.18484 26.7428C3.22009 22.9526 3.20086 19.1624 3.20407 15.3754C3.20407 12.9821 4.64896 11.5404 7.03255 11.5308C8.65044 11.5244 8.69209 11.5276 8.63763 13.2C8.57996 14.9877 8.91636 16.6153 10.3004 17.8488C11.8958 19.2681 13.7476 19.6366 15.7243 18.8068C17.6978 17.9802 18.7262 16.4071 18.8736 14.2765C18.9217 13.5844 18.9313 12.886 18.8736 12.1972C18.8256 11.6045 19.053 11.5179 19.588 11.5179C24.7909 11.5372 29.997 11.5404 35.1999 11.5179C35.751 11.5179 35.924 11.6301 35.908 12.2068C35.8791 13.1359 35.8182 14.0714 35.9945 15.0006C36.4846 17.5989 38.7817 19.3899 41.4088 19.204C43.9942 19.0214 46.0606 16.846 46.1247 14.2252C46.1407 13.5044 46.1536 12.7835 46.1247 12.0626C46.1087 11.6557 46.208 11.5147 46.6469 11.5179C51.9588 11.534 57.2674 11.534 62.5792 11.5179C63.079 11.5179 63.1206 11.707 63.1238 12.1203C63.1302 13.1295 63.0277 14.1451 63.2392 15.1511C63.7678 17.6726 66.1289 19.4315 68.7016 19.1976C71.2293 18.9702 73.2541 16.846 73.3438 14.3085C73.3694 13.5877 73.379 12.8668 73.3438 12.1491C73.3214 11.6878 73.4015 11.4507 73.9365 11.5179C74.3562 11.5692 74.7887 11.5244 75.2148 11.5308C77.2812 11.5628 78.7838 13.059 78.7934 15.1415C78.8094 19.0374 78.7805 22.9334 78.8158 26.8293C78.8222 27.4412 78.6524 27.5598 78.0693 27.5598C68.3299 27.5405 58.5873 27.5469 48.8479 27.5469C47.3742 27.5469 46.6309 28.0724 46.6149 29.1232C46.5989 30.1997 47.3646 30.7508 48.8799 30.7508C58.5937 30.7508 68.3075 30.7572 78.0213 30.738C78.6108 30.738 78.8158 30.8405 78.8158 31.4973C78.7934 43.8547 78.7998 56.2088 78.7966 68.5662C78.7966 70.9434 77.3389 72.3884 74.9457 72.3884C63.63 72.3884 52.3144 72.3884 41.0019 72.3884L40.9955 72.3916Z" fill="#F9F9FB"/>
<path d="M78.7574 74.6087C78.8888 77.2551 77.4343 78.7962 74.8873 78.7962C52.2913 78.7962 29.692 78.7962 7.09594 78.7962C4.55216 78.7962 3.09766 77.2487 3.23222 74.6023C4.86933 75.6788 6.68586 75.5987 8.49598 75.5987C30.5057 75.5923 52.5155 75.5891 74.5253 75.6019C75.9894 75.6019 77.3894 75.4257 78.7542 74.6055L78.7574 74.6087Z" fill="#F9F9FB"/>
<path d="M11.8504 9.53474C11.8504 8.12183 11.8408 6.71212 11.8504 5.29921C11.86 4.05931 12.6674 3.20067 13.7823 3.21349C14.8652 3.22631 15.6693 4.06572 15.6757 5.25756C15.6917 8.16027 15.6917 11.063 15.6757 13.9689C15.6693 15.1639 14.8619 16.0034 13.7823 16.0162C12.6706 16.029 11.86 15.1704 11.8504 13.9305C11.8376 12.4663 11.8504 10.9989 11.8504 9.53474Z" fill="#F9F9FB"/>
<path d="M42.9234 9.61804C42.9234 11.0566 42.933 12.4951 42.9234 13.9337C42.9138 15.18 42.1129 16.0322 40.9947 16.0194C39.9151 16.0066 39.1077 15.1672 39.1013 13.9689C39.0821 11.0662 39.0821 8.16348 39.1013 5.25756C39.1077 4.06252 39.9215 3.22631 41.0012 3.21349C42.1193 3.20388 42.9138 4.05291 42.9234 5.30242C42.9362 6.74096 42.9234 8.1795 42.9234 9.61804Z" fill="#F9F9FB"/>
<path d="M70.1426 9.64369C70.1426 11.0566 70.149 12.4663 70.1426 13.8792C70.133 15.1447 69.3769 15.997 68.262 16.0162C67.1247 16.0354 66.3173 15.1608 66.3109 13.8632C66.3013 11.0406 66.3013 8.21476 66.3109 5.39215C66.3141 4.08496 67.1022 3.21031 68.2364 3.21351C69.3769 3.21992 70.133 4.08496 70.1394 5.40816C70.1458 6.82107 70.1394 8.23078 70.1394 9.64369H70.1426Z" fill="#F9F9FB"/>
<path d="M48.0822 65.7019C47.5375 65.7243 46.9384 65.5257 46.3649 65.2213C44.7663 64.3723 43.158 63.5457 41.5657 62.6838C41.1749 62.4724 40.8705 62.4532 40.4636 62.6774C38.9034 63.5361 37.3175 64.3499 35.7381 65.1797C34.3188 65.9262 32.906 65.9518 31.6053 64.965C30.343 64.0103 29.9265 62.7063 30.2276 61.1332C30.564 59.3807 30.8011 57.6089 31.1407 55.8564C31.2272 55.4143 31.1087 55.174 30.8139 54.892C29.542 53.6746 28.299 52.425 27.0271 51.2076C25.8449 50.0766 25.3419 48.7502 25.8834 47.1579C26.412 45.6104 27.5717 44.8511 29.1736 44.6492C30.9197 44.4282 32.6529 44.1238 34.3957 43.8995C34.8282 43.8451 35.0461 43.6624 35.2255 43.2908C36.0008 41.6856 36.8114 40.0997 37.5835 38.4914C38.2819 37.0336 39.4 36.1974 41.0307 36.207C42.6262 36.2166 43.725 37.0432 44.4107 38.4722C45.1828 40.0773 45.9965 41.6632 46.7654 43.2684C46.9608 43.6721 47.1979 43.8451 47.6593 43.9027C49.4822 44.1302 51.3019 44.4057 53.1184 44.6909C54.5826 44.9184 55.6174 45.7225 56.114 47.1354C56.6105 48.5483 56.303 49.8363 55.2682 50.8968C53.945 52.252 52.577 53.5624 51.2058 54.8728C50.8854 55.1772 50.7861 55.4463 50.8758 55.9109C51.2282 57.7146 51.5102 59.5312 51.8177 61.3446C52.2118 63.6546 50.5106 65.6987 48.0757 65.7019H48.0822Z" fill="#E51B20"/>
<path d="M42.5939 29.1873C42.5747 30.0716 41.8026 30.7925 40.9216 30.7508C40.0694 30.7092 39.3806 29.9723 39.3998 29.12C39.419 28.2358 40.1879 27.5149 41.0722 27.5598C41.9276 27.6014 42.6132 28.3383 42.5939 29.1905V29.1873Z" fill="#E51B20"/>
<path d="M33.3323 62.011C33.7263 59.6754 34.0755 57.4647 34.4856 55.2669C34.6298 54.4915 34.4023 53.918 33.8705 53.399C32.3583 51.9316 30.8493 50.461 29.3468 48.9809C29.1321 48.7694 28.7925 48.5996 28.9175 48.1991C29.0456 47.7954 29.4301 47.8531 29.7248 47.8082C31.7528 47.5007 33.7808 47.1931 35.8152 46.9304C36.6898 46.8182 37.2697 46.4242 37.6541 45.6168C38.5287 43.7649 39.4546 41.9387 40.3709 40.1061C40.5183 39.8146 40.5791 39.3917 41.0341 39.4109C41.4377 39.4269 41.5018 39.805 41.6364 40.0773C42.5398 41.8843 43.4625 43.6849 44.3147 45.5175C44.7312 46.4178 45.3527 46.8279 46.3299 46.9464C48.3675 47.1931 50.3922 47.5295 52.4202 47.8307C52.7085 47.8723 53.0321 47.8723 53.1218 48.2408C53.1987 48.5579 52.9424 48.7213 52.7566 48.904C51.2701 50.3617 49.7963 51.8291 48.2842 53.2612C47.6498 53.8636 47.3711 54.4947 47.5441 55.3918C47.9382 57.4327 48.2521 59.4864 48.6045 61.5336C48.659 61.8444 48.8096 62.1808 48.47 62.4115C48.14 62.6358 47.8549 62.3891 47.5825 62.2481C45.766 61.2998 43.9463 60.3578 42.149 59.3774C41.3737 58.9545 40.6817 58.9353 39.8935 59.3678C38.0546 60.3802 36.1804 61.335 34.3158 62.3026C33.659 62.6422 33.313 62.482 33.3355 62.011H33.3323Z" fill="#F9F9FB"/>
</g>
<defs>
<clipPath id="clip0_11_1613">
<rect width="82" height="82" fill="white"/>
</clipPath>
</defs>
</svg>
