<svg width="61" height="82" viewBox="0 0 61 82" fill="none" xmlns="http://www.w3.org/2000/svg">
<g clip-path="url(#clip0_11_1629)">
<path d="M31.1859 0C41.6706 0.406956 50.4536 5.07894 56.4887 14.5254C59.805 19.7165 61.2936 25.4556 60.9513 31.5759C60.6704 36.6228 59.0623 41.3301 56.5695 45.7329C54.1993 49.921 51.3675 53.8143 48.7229 57.8262C43.9277 65.0937 39.0842 72.3292 34.2632 79.5807C33.7401 80.369 33.1588 81.0996 32.2999 81.5482C30.7015 82.3845 28.8351 82.0449 27.6113 80.6926C27.2723 80.3177 26.9655 79.9075 26.6846 79.4846C19.9068 69.3011 13.129 59.1175 6.36095 48.9276C3.48387 44.5921 1.41082 39.9297 0.442101 34.7963C-0.381307 30.4256 -0.0293402 26.1317 1.20739 21.9051C3.02857 15.679 6.54824 10.5584 11.6695 6.53052C15.5315 3.48957 19.8939 1.5381 24.7149 0.586401C26.6168 0.211489 28.5478 0.0737007 31.1859 0Z" fill="#E51B20"/>
<path d="M30.6632 3.52802C41.4385 4.06635 49.65 8.90816 54.6905 18.6623C56.896 22.9273 57.784 27.516 57.2931 32.2969C56.8604 36.5075 55.4978 40.4585 53.3505 44.1082C49.9664 49.8633 46.0593 55.2883 42.3943 60.8671C38.6841 66.5133 34.919 72.1241 31.1733 77.7478C30.534 78.7091 30.4759 78.7091 29.843 77.7606C22.978 67.4457 16.0937 57.1404 9.26423 46.8031C6.72943 42.9675 4.87272 38.8338 4.00088 34.2868C3.20007 30.1179 3.60048 26.0452 4.90824 22.0621C6.73911 16.4961 10.0941 11.994 14.8925 8.57491C18.467 6.02743 22.4452 4.47651 26.8044 3.85486C28.0347 3.67862 29.2714 3.72348 30.6632 3.52802Z" fill="#F9F9FB"/>
<path d="M30.4856 46.3353C21.5669 46.3161 14.3403 39.1286 14.3565 30.2942C14.3726 21.4597 21.6412 14.2595 30.5243 14.2787C39.4204 14.2947 46.6664 21.5046 46.6534 30.3326C46.6438 39.1703 39.3848 46.3545 30.4856 46.3321V46.3353Z" fill="#E51B20"/>
<path d="M30.5146 42.7848C23.6109 42.7913 17.9374 37.1772 17.9277 30.3262C17.9181 23.4881 23.5947 17.8484 30.492 17.8356C37.3763 17.8227 43.0691 23.4624 43.0788 30.307C43.0885 37.1515 37.4183 42.7784 30.5146 42.7848Z" fill="#F9F9FB"/>
</g>
<defs>
<clipPath id="clip0_11_1629">
<rect width="61" height="82" fill="white"/>
</clipPath>
</defs>
</svg>
