<svg width="82" height="82" viewBox="0 0 82 82" fill="none" xmlns="http://www.w3.org/2000/svg">
<path d="M8.73421 22.4598C10.1512 22.4854 11.4944 22.7898 12.7318 23.469C13.1678 23.7093 13.5333 23.7029 13.9981 23.5363C35.7974 15.7573 57.6031 7.99425 79.4088 0.228046C80.5372 -0.172439 81.2008 -0.0506954 81.7073 0.634935C82.1626 1.25328 82.0055 1.87803 81.7811 2.53163C79.3831 9.5257 76.9981 16.523 74.6033 23.517C69.4004 38.713 64.191 53.909 58.988 69.1051C58.8694 69.4479 58.786 69.7683 58.9207 70.172C60.1132 73.7443 59.4592 76.9674 56.7087 79.5465C53.9645 82.1192 50.6914 82.6639 47.2132 81.2029C31.0528 74.4171 18.1239 63.6969 8.38158 49.1417C5.35212 44.6178 2.82276 39.8184 0.7358 34.7883C-1.4826 29.4346 1.50519 23.7637 7.14736 22.6264C7.66669 22.5206 8.20526 22.511 8.73421 22.4534V22.4598Z" fill="#E51B20"/>
<path d="M77.7994 4.24243C77.3762 5.47913 76.9883 6.60048 76.6068 7.71863C75.7124 10.3362 74.8084 12.9506 73.9364 15.5746C73.7665 16.0808 73.6767 16.2762 73.0516 16.0071C69.1438 14.3282 64.6396 16.3467 63.2932 20.3323C61.9243 24.382 64.271 28.6848 68.4545 29.7325C68.9835 29.8639 68.9963 30.0369 68.8456 30.4694C67.9063 33.1574 66.9734 35.8423 66.0758 38.5432C65.8867 39.1135 65.736 39.1263 65.2968 38.7674C64.3479 37.9921 63.3638 37.2584 62.3828 36.5215C61.4627 35.8295 60.4978 35.9096 59.9207 36.7073C59.3565 37.4859 59.5425 38.3638 60.4401 39.0622C61.7256 40.0618 63.0143 41.0518 64.3126 42.0354C64.5851 42.2404 64.848 42.4102 64.6108 42.8011C64.5563 42.8908 64.5499 43.003 64.5146 43.1055C61.841 50.9037 59.1706 58.702 56.4874 66.5291C54.192 64.8342 51.4671 64.0525 48.9955 62.7645C34.2136 55.0592 23.5704 43.538 16.9825 28.2491C16.7517 27.7141 16.5209 27.1662 16.2003 26.6824C15.915 26.2531 16.0978 26.1762 16.4664 26.0512C17.55 25.686 18.6335 25.3111 19.7011 24.901C20.0986 24.7473 20.23 24.7729 20.3326 25.2343C21.1116 28.8066 24.0769 31.2191 27.5648 31.1582C31.1168 31.0973 34.0181 28.5887 34.6656 24.9779C34.9509 23.376 34.6528 21.8445 33.8802 20.4188C33.6879 20.06 33.659 19.9222 34.1142 19.762C40.436 17.5289 46.7514 15.2798 53.0604 13.0114C53.49 12.8577 53.6278 13.0018 53.756 13.3543C53.9227 13.8028 54.099 14.2513 54.3074 14.6807C54.721 15.5329 55.5545 15.8661 56.3655 15.5297C57.1894 15.1869 57.5452 14.3763 57.2599 13.4856C57.2343 13.4087 57.2054 13.335 57.1766 13.2614C56.7962 12.2617 57.0932 11.5879 58.0678 11.2397C64.3832 8.98738 70.6954 6.73505 77.0107 4.48272C77.2255 4.40583 77.4499 4.35136 77.8058 4.24884L77.7994 4.24243Z" fill="#F9F9FB"/>
<path d="M56.2662 72.9403C56.2854 77.1919 52.275 79.8447 48.4986 78.2812C40.6412 75.0261 33.4314 70.6848 26.9141 65.2158C16.6171 56.5685 8.92966 45.9989 3.70424 33.6287C2.63671 31.1009 3.26505 28.4609 5.31674 26.8621C7.31394 25.305 10.119 25.305 12.145 26.8525C13.0875 27.5734 13.6389 28.557 14.0942 29.6271C18.1655 39.2131 24.0353 47.5336 31.7035 54.5789C37.7432 60.128 44.5266 64.5366 52.0955 67.7116C54.0734 68.5414 55.5962 69.7268 56.1091 71.9087C56.2053 72.322 56.2373 72.7481 56.263 72.9339L56.2662 72.9403Z" fill="#F9F9FB"/>
<path d="M31.5467 23.9078C31.5307 26.0768 29.7899 27.8582 27.5972 27.9479C25.4621 28.0344 23.5323 26.2915 23.3816 24.1641C23.3527 23.7572 23.4521 23.5458 23.8657 23.4048C25.9045 22.7064 27.937 21.9855 29.9566 21.2422C30.3606 21.0916 30.5754 21.1557 30.8062 21.5049C31.287 22.2418 31.5627 23.0267 31.5467 23.9078Z" fill="#F9F9FB"/>
<path d="M66.127 22.6775C66.1334 19.637 69.3199 17.6794 72.0256 19.0314C72.4904 19.2653 72.6122 19.4896 72.4231 20.0118C71.6922 22.0335 70.9837 24.0648 70.3425 26.1152C70.1406 26.756 69.8168 26.7913 69.2911 26.6695C67.4413 26.2434 66.1238 24.5838 66.1302 22.6743L66.127 22.6775Z" fill="#F9F9FB"/>
<path d="M41.4688 47.6164C41.4655 43.5699 44.7354 40.3116 48.794 40.318C52.7755 40.3244 56.0518 43.6276 56.0422 47.6261C56.0326 51.6085 52.7435 54.8796 48.7395 54.886C44.7418 54.8925 41.4752 51.6245 41.4688 47.6164Z" fill="#E51B20"/>
<path d="M49.1243 20.4126C53.1251 20.3678 56.3854 23.5845 56.4367 27.6246C56.488 31.6518 53.2277 34.9454 49.1628 34.9711C45.1876 34.9967 41.9177 31.7319 41.8889 27.7015C41.86 23.703 45.0818 20.4575 49.1243 20.4126Z" fill="#E51B20"/>
<path d="M34.3352 33.1093C35.8644 33.3143 37.557 33.513 39.2401 33.7757C40.0832 33.9071 40.6153 34.7144 40.5063 35.541C40.4006 36.3484 39.6664 37.0148 38.8265 36.9251C37.1339 36.7457 35.4444 36.5214 33.7614 36.2587C32.8445 36.1177 32.2899 35.3136 32.415 34.4774C32.5464 33.6091 33.2292 33.0741 34.3384 33.1061L34.3352 33.1093Z" fill="#E51B20"/>
<path d="M36.6472 45.6397C36.6408 46.5752 36.0221 47.2768 35.2014 47.3601C34.3711 47.4434 33.6146 46.8956 33.4735 46.0401C33.2908 44.9092 33.1337 43.775 33.0151 42.6376C32.9253 41.7662 33.4992 41.0581 34.3327 40.9107C35.1598 40.7634 36.0029 41.2568 36.1503 42.0866C36.3683 43.2912 36.4934 44.5119 36.6472 45.6397Z" fill="#E51B20"/>
<path d="M13.4564 41.3244C12.8056 41.3308 12.3343 41.0296 12.0202 40.4753C10.4237 37.6463 8.9779 34.7404 7.74367 31.7319C7.3686 30.8188 7.72444 29.9506 8.55794 29.5885C9.39144 29.2265 10.2794 29.5533 10.6705 30.4664C11.9048 33.3563 13.2929 36.1693 14.8124 38.9214C15.444 40.062 14.6938 41.3211 13.4564 41.3244Z" fill="#E51B20"/>
<path d="M15.9279 42.199C16.8319 42.2022 17.55 42.9423 17.5212 43.8362C17.4955 44.6948 16.7646 45.4093 15.9183 45.4029C15.0335 45.3965 14.3122 44.6436 14.3314 43.7433C14.3507 42.8686 15.0463 42.1926 15.9247 42.1958L15.9279 42.199Z" fill="#E51B20"/>
<path d="M44.671 47.6422C44.6581 45.3803 46.4534 43.538 48.6846 43.522C50.9671 43.506 52.8329 45.3386 52.8361 47.6006C52.8361 49.8208 50.9831 51.6823 48.768 51.6823C46.5143 51.6823 44.6838 49.8753 44.671 47.6422Z" fill="#F9F9FB"/>
<path d="M53.2339 27.7974C53.1666 30.0465 51.2655 31.8535 49.0696 31.7573C46.7807 31.658 45.0367 29.8382 45.088 27.6051C45.1393 25.3143 47.0147 23.5394 49.3004 23.6195C51.5669 23.6996 53.3044 25.545 53.2371 27.7941L53.2339 27.7974Z" fill="#F9F9FB"/>
</svg>
