<svg width="82" height="82" viewBox="0 0 82 82" fill="none" xmlns="http://www.w3.org/2000/svg">
<path d="M28.9655 13.3627C30.9391 13.3627 32.9158 13.3403 34.8894 13.3756C35.4629 13.3852 35.7127 13.2186 35.8922 12.6611C37.084 8.90914 38.3271 5.17325 39.5253 1.42454C39.7752 0.645958 40.134 0.0179626 41.0279 0.0275747C41.9217 0.0371868 42.2613 0.684398 42.508 1.45657C43.6998 5.18286 44.9365 8.88993 46.1155 12.6194C46.3013 13.209 46.5576 13.382 47.1696 13.3788C50.9853 13.3499 54.8042 13.3627 58.62 13.3627C58.8603 13.3627 59.1006 13.3563 59.3408 13.3692C60.0136 13.4108 60.5198 13.6992 60.7217 14.3784C60.9235 15.0513 60.68 15.5895 60.1322 15.9868C58.4982 17.1819 56.8515 18.3674 55.2143 19.5561C53.5548 20.7641 51.9048 21.988 50.226 23.1703C49.8063 23.4651 49.723 23.7054 49.8864 24.2052C51.1359 27.9667 52.3437 31.7411 53.574 35.509C53.7502 36.0537 53.8976 36.5792 53.5612 37.1174C53.0774 37.8896 52.2252 38.0082 51.3441 37.3705C48.1243 35.0444 44.9045 32.7183 41.7071 30.3601C41.2041 29.9885 40.8901 29.9308 40.3487 30.3345C37.2025 32.6734 34.0211 34.9579 30.8494 37.2616C30.4585 37.5436 30.0708 37.8287 29.5454 37.7839C28.5266 37.6974 28.0396 36.781 28.4145 35.6211C29.4301 32.4812 30.4585 29.3477 31.4677 26.2077C31.7496 25.3298 32.4545 24.3494 32.1629 23.5932C31.8842 22.8787 30.8109 22.4686 30.0805 21.9367C27.4309 20.0047 24.7781 18.0759 22.1222 16.1535C21.7025 15.8491 21.3244 15.5351 21.2572 14.9712C21.145 14.0228 21.7634 13.3756 22.8783 13.366C24.9063 13.3467 26.9343 13.3595 28.9623 13.3595L28.9655 13.3627Z" fill="#E51B20"/>
<path d="M53.3533 60.8753C55.0064 60.8753 56.6628 60.8561 58.316 60.8881C58.8094 60.8977 58.992 60.7343 59.1362 60.2729C60.1229 57.1522 61.1482 54.0475 62.1541 50.9332C62.3432 50.3533 62.5963 49.8374 63.2402 49.658C64.054 49.4305 64.7204 49.8502 65.0344 50.8082C66.0532 53.9161 67.0752 57.0241 68.0588 60.1448C68.2414 60.7247 68.4977 60.9009 69.1096 60.8945C72.3102 60.8593 75.514 60.8753 78.7178 60.8785C79.7302 60.8785 80.3294 61.2053 80.5152 61.8878C80.7427 62.7176 80.3069 63.2431 79.6726 63.698C77.0999 65.5532 74.5529 67.4436 71.9578 69.2699C71.3811 69.6768 71.2434 70.0004 71.4772 70.6796C72.4993 73.6754 73.4604 76.6904 74.4408 79.699C74.4728 79.8015 74.492 79.9072 74.5273 80.0066C74.7675 80.689 74.633 81.2785 74.0467 81.7143C73.4476 82.1597 72.8485 82.0475 72.275 81.631C69.9234 79.9233 67.5718 78.2187 65.2234 76.5046C64.1661 75.7335 63.1174 75.7238 62.0773 76.4757C59.7481 78.1674 57.4125 79.8496 55.0865 81.5477C54.4714 81.9963 53.8435 82.1917 53.1803 81.6983C52.5171 81.2049 52.5171 80.5384 52.767 79.8271C52.8215 79.6765 52.8631 79.5227 52.9112 79.3722C53.8723 76.4116 54.8238 73.4479 55.8106 70.497C55.9804 69.9876 55.9195 69.7152 55.4646 69.3916C52.815 67.5076 50.1975 65.5756 47.5576 63.6756C46.9232 63.2174 46.4811 62.6952 46.7502 61.8654C47.0194 61.0355 47.6857 60.8625 48.4643 60.8657C50.0918 60.8753 51.7193 60.8657 53.3469 60.8657L53.3533 60.8753Z" fill="#E51B20"/>
<path d="M12.3573 58.1294C13.4786 58.1294 14.5999 58.091 15.7181 58.1455C16.346 58.1743 16.6408 58.0109 16.833 57.3669C17.477 55.2009 18.217 53.0639 18.8995 50.9076C19.1429 50.1418 19.489 49.501 20.3956 49.501C21.3087 49.501 21.6515 50.1546 21.8918 50.9107C22.5902 53.0895 23.3271 55.2554 23.9935 57.4406C24.1665 58.0077 24.4228 58.1519 24.9835 58.1422C27.303 58.1102 29.6258 58.1422 31.9454 58.123C32.7111 58.1166 33.3454 58.3217 33.6017 59.0906C33.8548 59.85 33.5024 60.4139 32.8713 60.8657C31.0067 62.1985 29.1741 63.5731 27.2966 64.8867C26.7648 65.2584 26.6142 65.566 26.8417 66.2196C27.6202 68.4528 28.3251 70.7149 29.0363 72.9705C29.3375 73.9253 28.8505 74.7615 27.9502 74.9121C27.4312 74.9986 27.0275 74.7423 26.6334 74.454C24.7176 73.057 22.7889 71.6761 20.8858 70.2599C20.5206 69.9875 20.3027 69.9747 19.9311 70.2535C18.0504 71.6536 16.1378 73.0122 14.2475 74.3995C13.6004 74.8737 12.95 75.1877 12.2131 74.6302C11.5179 74.1047 11.5916 73.4191 11.8351 72.6789C12.5591 70.481 13.2351 68.267 13.988 66.0818C14.177 65.5339 14.0425 65.2872 13.61 64.9796C11.7838 63.6852 9.98325 62.3523 8.1731 61.0355C8.00009 60.9105 7.81748 60.7952 7.65729 60.6542C7.17992 60.2313 6.95565 59.725 7.18312 59.0842C7.40739 58.4627 7.86233 58.1358 8.51591 58.1294C9.79743 58.1166 11.0758 58.1262 12.3573 58.1262V58.1294Z" fill="#E51B20"/>
<path d="M11.3091 19.8222C13.6607 19.8126 15.5381 21.6645 15.5542 24.0066C15.5702 26.384 13.6575 28.3161 11.3091 28.2936C8.99275 28.2712 7.08008 26.352 7.08008 24.0451C7.08008 21.7254 8.97353 19.8318 11.3091 19.8222Z" fill="#E51B20"/>
<path d="M69.244 28.3032C71.5892 28.2872 73.4923 30.1423 73.5115 32.4716C73.5339 34.8362 71.6245 36.7715 69.2729 36.7715C66.9597 36.7715 65.0438 34.8554 65.0342 32.5421C65.0246 30.2192 66.9116 28.3192 69.244 28.3032Z" fill="#E51B20"/>
<path d="M70.6724 4.37552C70.6147 6.7433 68.6668 8.56639 66.2736 8.48949C64.0117 8.419 62.1535 6.44852 62.2143 4.18007C62.2752 1.80909 64.2424 -0.0588581 66.5875 0.0180386C68.9135 0.0949353 70.7269 2.03017 70.6692 4.37552H70.6724Z" fill="#E51B20"/>
<path d="M36.7862 49.4691C36.7958 47.1205 38.6604 45.259 41.0088 45.259C43.3508 45.259 45.225 47.1237 45.2442 49.4659C45.2635 51.8272 43.3412 53.74 40.9735 53.7176C38.6284 53.6952 36.7766 51.8176 36.7862 49.4691Z" fill="#E51B20"/>
<path d="M11.1783 8.48944C10.7234 8.4606 10.2909 8.18506 10.0538 7.65319C9.78468 7.04763 9.92244 6.50614 10.3806 6.04476C11.5852 4.83364 12.7931 3.62571 14.0009 2.41779C14.6417 1.77699 15.276 1.12657 15.9296 0.498584C16.5992 -0.142222 17.4033 -0.161446 17.9896 0.418483C18.5759 0.998413 18.5759 1.81865 17.9224 2.48188C16.0866 4.34342 14.2284 6.18574 12.3798 8.03126C12.085 8.32603 11.7358 8.49905 11.1783 8.48944Z" fill="#E51B20"/>
<path d="M1.62107 55.1401C0.858559 55.1337 0.422841 54.887 0.160129 54.3519C-0.137826 53.7464 -0.0064696 53.2017 0.442064 52.7403C1.1437 52.0098 1.87096 51.3017 2.58862 50.584C3.70034 49.469 4.80565 48.3508 5.92699 47.2454C6.67668 46.5084 7.50006 46.4636 8.10878 47.098C8.68226 47.6939 8.631 48.5206 7.93578 49.2223C6.15125 51.0229 4.35392 52.8076 2.56299 54.6018C2.25222 54.9126 1.91261 55.1561 1.62427 55.1401H1.62107Z" fill="#E51B20"/>
<path d="M74.8761 21.2319C74.3475 21.1806 73.8958 20.9596 73.6459 20.4085C73.3672 19.7965 73.5017 19.2582 73.9535 18.8C74.889 17.8484 75.8341 16.9097 76.776 15.9645C77.6442 15.0962 78.5061 14.2247 79.3807 13.3628C80.124 12.6323 80.9634 12.5522 81.5657 13.1385C82.1872 13.7441 82.1456 14.5803 81.4151 15.3205C79.6306 17.1211 77.8301 18.9026 76.0423 20.6968C75.7284 21.014 75.3663 21.2095 74.8794 21.2287L74.8761 21.2319Z" fill="#E51B20"/>
<path d="M17.0541 35.3712C17.4546 35.3423 17.7974 35.5827 18.1082 35.8934C19.8991 37.6845 21.6932 39.4691 23.4777 41.2666C24.1698 41.9651 24.2114 42.7917 23.6283 43.3877C23.042 43.9868 22.1962 43.9612 21.501 43.2755C19.6812 41.4749 17.8807 39.6582 16.0737 37.8479C15.5996 37.3705 15.4041 36.8162 15.7149 36.1786C15.9648 35.6596 16.3909 35.368 17.0541 35.3712Z" fill="#E51B20"/>
<path d="M72.1592 43.8555C72.5981 43.8331 72.9409 44.0766 73.2484 44.3874C75.0394 46.1784 76.8335 47.9599 78.6148 49.7605C79.2908 50.4462 79.3165 51.3049 78.7302 51.8848C78.1375 52.4711 77.3045 52.4263 76.606 51.7374C74.7927 49.9367 72.9889 48.1201 71.1788 46.313C70.6918 45.826 70.5508 45.2557 70.8456 44.6373C71.0923 44.1182 71.5344 43.8395 72.1592 43.8587V43.8555Z" fill="#E51B20"/>
<path d="M45.2088 72.2144C45.2152 72.6149 44.9845 72.9577 44.6738 73.2717C42.8796 75.0627 41.0919 76.8602 39.2882 78.6416C38.5994 79.3241 37.7471 79.3497 37.164 78.7538C36.5938 78.1706 36.613 77.344 37.2634 76.6872C39.0831 74.8481 40.9189 73.0218 42.7515 71.1923C43.2385 70.7053 43.8184 70.5803 44.4367 70.8623C44.9685 71.1026 45.2248 71.5607 45.212 72.2144H45.2088Z" fill="#E51B20"/>
<path d="M49.6814 32.6767C47.1312 30.8248 44.7411 29.0914 42.3511 27.3548C41.1497 26.4833 40.887 26.4801 39.6663 27.3644C37.4877 28.944 35.3123 30.53 33.1337 32.1064C32.9287 32.257 32.7557 32.4845 32.4065 32.4973C33.3292 29.6553 34.2455 26.839 35.1585 24.0226C35.5943 22.6865 35.4885 22.3629 34.3384 21.5267C31.9515 19.7933 29.5647 18.0599 26.9824 16.1888H27.9564C30.7565 16.1888 33.5598 16.1888 36.36 16.1888C37.4076 16.1888 37.7921 15.91 38.1157 14.92C38.9743 12.2927 39.8233 9.66215 40.6819 7.03164C40.7684 6.76571 40.8709 6.50939 41.0279 6.07043C42.0147 9.10145 42.9438 11.9434 43.8697 14.7854C44.2477 15.9485 44.5649 16.1855 45.7632 16.1855C48.7715 16.1855 51.7799 16.1855 54.9709 16.1855C54.6313 16.4579 54.4263 16.6373 54.2052 16.8007C51.985 18.4156 49.7615 20.024 47.5413 21.6356C46.5705 22.3405 46.4392 22.741 46.8108 23.888C47.7399 26.7428 48.6754 29.5976 49.6782 32.6767H49.6814Z" fill="#F9F9FB"/>
<path d="M70.5347 76.8505C69.6825 76.2418 69.0001 75.758 68.3209 75.2645C67.2188 74.4667 66.1231 73.6657 65.0242 72.8647C63.7587 71.9484 63.5088 71.9452 62.2721 72.8391C60.6766 73.9958 59.0843 75.162 57.4824 76.3123C57.2742 76.4629 57.1011 76.6904 56.7551 76.7C57.476 74.4988 58.1904 72.3233 58.9017 70.1445C59.2733 69.0039 59.1484 68.597 58.1776 67.8889C56.3354 66.54 54.4836 65.2039 52.4492 63.7236H56.4476C57.46 63.7236 58.4756 63.7236 59.488 63.7236C60.7086 63.7236 61.0707 63.4577 61.4551 62.2818C62.1055 60.2857 62.7559 58.2864 63.3998 56.2871C63.4575 56.1109 63.4735 55.9186 63.6786 55.7712C64.3898 57.9468 65.0979 60.1063 65.8027 62.2658C66.2064 63.4994 66.5107 63.7204 67.8275 63.7204C70.067 63.7204 72.3064 63.7204 74.5587 63.7204C74.5972 64.0248 74.3312 64.0633 74.1871 64.169C72.4474 65.4474 70.6949 66.7098 68.952 67.9818C68.1479 68.5681 67.9973 69.0263 68.3049 69.9843C69.0193 72.2047 69.7434 74.4187 70.5315 76.8442L70.5347 76.8505Z" fill="#F9F9FB"/>
<path d="M13.1581 60.965C14.4781 60.965 15.8013 60.9682 17.1212 60.965C18.3547 60.9618 18.6815 60.7119 19.0724 59.5136C19.4921 58.2288 19.9182 56.9472 20.3955 55.4957C20.8473 56.8895 21.2413 58.107 21.6354 59.3278C22.1032 60.7696 22.3627 60.9618 23.8589 60.965C25.1244 60.965 26.3899 60.965 27.9053 60.965C26.6013 61.9198 25.496 62.724 24.3939 63.5314C23.5032 64.1818 23.3655 64.5952 23.7019 65.6461C24.1216 66.9598 24.5477 68.2702 25.0379 69.7857C23.9838 69.0263 23.0771 68.3823 22.1769 67.7255C20.9936 66.8626 19.8199 66.854 18.6559 67.6999C17.7236 68.3759 16.7848 69.0456 15.7308 69.8017C16.2434 68.2253 16.6855 66.8252 17.1533 65.4314C17.4128 64.6561 17.1597 64.0825 16.5317 63.6276C15.3912 62.8009 14.2538 61.9711 13.1133 61.1444C13.1261 61.0868 13.1421 61.0291 13.1549 60.9682L13.1581 60.965Z" fill="#F9F9FB"/>
<path d="M11.3416 25.4579C10.5663 25.4643 9.92552 24.8203 9.92872 24.0385C9.93193 23.2568 10.5855 22.6128 11.3544 22.6288C12.0945 22.6448 12.7128 23.2664 12.7289 24.0129C12.7481 24.7979 12.1201 25.4483 11.3384 25.4547L11.3416 25.4579Z" fill="#F9F9FB"/>
<path d="M70.6697 32.5358C70.6664 33.3271 70.0257 33.9583 69.2472 33.9391C68.4718 33.9231 67.8599 33.2663 67.8855 32.4749C67.908 31.7283 68.5295 31.11 69.2664 31.1036C70.0321 31.0972 70.6729 31.7508 70.6697 32.5358Z" fill="#F9F9FB"/>
<path d="M66.4182 5.65071C65.63 5.63469 65.0053 4.98106 65.0373 4.20569C65.0694 3.43031 65.7325 2.83437 66.5239 2.86641C67.2672 2.89845 67.8791 3.53605 67.8727 4.26977C67.8631 5.03874 67.2063 5.66673 66.4182 5.65071Z" fill="#F9F9FB"/>
<path d="M39.5923 49.5203C39.5699 48.7641 40.2331 48.0784 40.9956 48.0688C41.7261 48.0592 42.3829 48.6744 42.4277 49.4113C42.4726 50.1675 41.8318 50.8692 41.0661 50.9044C40.3132 50.9396 39.6148 50.2828 39.5923 49.5203Z" fill="#F9F9FB"/>
</svg>
